<?xml version="1.0" encoding="utf-8"?>
<!-- Generator: Adobe Illustrator 16.0.0, SVG Export Plug-In . SVG Version: 6.00 Build 0)  -->
<!DOCTYPE svg PUBLIC "-//W3C//DTD SVG 1.1//EN" "http://www.w3.org/Graphics/SVG/1.1/DTD/svg11.dtd">
<svg version="1.1" id="Layer_1" xmlns:sketch="http://www.bohemiancoding.com/sketch/ns"
	 xmlns="http://www.w3.org/2000/svg" xmlns:xlink="http://www.w3.org/1999/xlink" x="0px" y="0px" width="110.602px" height="105px"
	 viewBox="0 0 110.602 105" enable-background="new 0 0 110.602 105" xml:space="preserve">
<title>Slice 1</title>
<description>Created with Sketch.</description>
<path id="B." sketch:type="MSShapeGroup" fill="#4D9BC7" d="M72.875,70.666v0.668c0,2.609,2.021,4.614,4.781,4.614
	c2.697,0,4.719-2.007,4.719-4.614v-0.668c0-2.609-2.021-4.614-4.719-4.614C74.897,66.05,72.875,68.057,72.875,70.666L72.875,70.666z
	"/>
<path fill="#4D9BC7" d="M52.125,76.247c11.199-0.067,18-4.734,18-13.719c0-7.023-4.066-10.578-10.029-12.604
	c3.781-1.955,7.389-4.954,7.389-11.036c0-3.547-0.912-6.689-3.166-8.934c-2.91-2.896-7.906-4.204-13.725-4.204H30.237
	c-1.453,0-2.111,0.656-2.111,2.102v46.296c0,1.446,0.659,2.102,2.112,2.102L52.125,76.247z"/>
</svg>
