<?xml version="1.0" encoding="utf-8"?>
<!-- Generator: Adobe Illustrator 16.0.0, SVG Export Plug-In . SVG Version: 6.00 Build 0)  -->
<!DOCTYPE svg PUBLIC "-//W3C//DTD SVG 1.1//EN" "http://www.w3.org/Graphics/SVG/1.1/DTD/svg11.dtd">
<svg version="1.1" id="Layer_1" xmlns="http://www.w3.org/2000/svg" xmlns:xlink="http://www.w3.org/1999/xlink" x="0px" y="0px"
	 width="318px" height="110px" viewBox="0 0 318 110" enable-background="new 0 0 318 110" xml:space="preserve">
<g>
	<defs>
		<rect id="SVGID_1_" y="0.027" width="317.377" height="109.973"/>
	</defs>
	<clipPath id="SVGID_2_">
		<use xlink:href="#SVGID_1_"  overflow="visible"/>
	</clipPath>
	<path clip-path="url(#SVGID_2_)" fill="#3D3D3C" d="M152.151,28.046h8.024v8.024h-8.024V28.046z M309.352,28.046h8.025v8.024
		h-8.025V28.046z M152.375,43.524h7.577V81.24h-7.577V43.524z M182.229,81.24h-4.54c-2.232,0-4.13-0.484-5.692-1.451
		c-1.562-0.968-2.729-2.245-3.498-3.832c-0.781-1.588-1.164-3.325-1.164-5.221V49.998h-4.292v-5.816h4.292V32.735h7.589v11.447
		h7.306v5.816h-7.306v20.378c0,2.926,1.388,4.391,4.18,4.391h3.126V81.24 M215.918,81.24h-7.589V58.271
		c0-1.887-0.336-3.46-1.003-4.714c-0.659-1.264-1.566-2.194-2.705-2.777c-1.143-0.596-2.432-0.893-3.896-0.893
		c-2.269,0-4.142,0.707-5.617,2.12c-1.464,1.414-2.194,3.51-2.194,6.265V81.24h-7.589V43.524h7.438v3.809
		c1.267-1.39,2.778-2.456,4.554-3.188c1.762-0.732,3.596-1.091,5.48-1.091c3.857,0,6.957,1.153,9.301,3.448
		c2.544,2.455,3.82,5.989,3.82,10.616V81.24 M306.434,81.24h-7.589V58.271c0-2.829-0.707-4.937-2.107-6.313
		c-1.402-1.377-3.226-2.071-5.472-2.071c-2.182,0-4.017,0.707-5.531,2.108c-1.514,1.402-2.27,3.374-2.27,5.916V81.24h-7.59V58.271
		c0-1.887-0.335-3.46-1.004-4.714c-0.659-1.264-1.563-2.194-2.704-2.777c-1.14-0.596-2.43-0.893-3.894-0.893
		c-2.272,0-4.143,0.707-5.618,2.12c-1.463,1.414-2.196,3.51-2.196,6.265V81.24h-7.589V43.524h7.44v3.809
		c1.24-1.365,2.728-2.419,4.477-3.164c1.738-0.743,3.597-1.115,5.555-1.115c4.751,0,8.323,1.847,10.73,5.555
		c3.025-3.708,6.969-5.555,11.844-5.555c3.968,0,7.144,1.153,9.524,3.448c2.669,2.566,3.993,6.101,3.993,10.616V81.24
		 M309.575,43.524h7.579V81.24h-7.579V43.524z M133.244,49.887c-2.158,0-3.82,0.545-4.986,1.637
		c-1.153,1.079-1.934,2.518-2.318,4.316c-0.385,1.786-0.584,3.957-0.584,6.524c0,2.566,0.199,4.749,0.584,6.548
		c0.384,1.799,1.165,3.249,2.318,4.354c1.166,1.104,2.828,1.649,4.986,1.649c3.102,0,5.184-1.104,6.238-3.324
		c1.055-2.208,1.576-5.283,1.576-9.227c0-2.567-0.199-4.75-0.583-6.548c-0.386-1.799-1.155-3.238-2.307-4.317
		C137.015,50.421,135.378,49.887,133.244,49.887 M135.166,81.674c-2.133,0-3.98-0.323-5.544-0.979
		c-1.563-0.657-3.026-1.824-4.415-3.486v4.031h-7.441V28.27h7.59v19.063c1.302-1.563,2.754-2.666,4.341-3.312
		c1.587-0.645,3.435-0.967,5.544-0.967c1.859,0,3.596,0.297,5.209,0.905c1.611,0.607,2.926,1.426,3.943,2.468
		c1.167,1.166,2.073,2.605,2.704,4.316c0.646,1.699,1.067,3.472,1.265,5.296c0.187,1.835,0.285,3.932,0.285,6.312
		c0,2.369-0.098,4.478-0.285,6.314c-0.198,1.847-0.619,3.621-1.265,5.344c-0.631,1.725-1.537,3.163-2.704,4.317
		c-1.017,1.027-2.332,1.835-3.956,2.442C138.812,81.376,137.052,81.674,135.166,81.674 M233.307,64.559
		c-2.207,0-3.88,0.472-5.032,1.414c-1.155,0.942-1.726,2.294-1.726,4.031c0,3.56,2.309,5.346,6.908,5.346
		c1.624,0,2.977-0.137,4.067-0.423c1.093-0.272,2.097-0.855,3.014-1.723c1.091-1.092,1.637-2.953,1.637-5.593v-3.053H233.307
		 M232.292,81.674c-2.269,0-4.243-0.285-5.917-0.855c-1.675-0.57-3.074-1.427-4.216-2.555c-1.985-2.059-2.978-4.763-2.978-8.11
		c0-2.158,0.495-4.057,1.487-5.681c0.993-1.637,2.468-2.916,4.415-3.82c1.95-0.905,4.317-1.364,7.109-1.364h9.981v-2.68
		c0-2.405-0.657-4.179-1.96-5.319c-1.313-1.129-3.409-1.7-6.286-1.7c-2.108,0-3.747,0.261-4.925,0.794
		c-1.177,0.533-2.294,1.477-3.359,2.828l-4.976-4.676c1.725-2.046,3.611-3.472,5.668-4.278c2.06-0.807,4.688-1.203,7.876-1.203
		c10.368,0,15.553,4.328,15.553,12.971V81.24h-7.439v-3.423c-1.392,1.389-2.829,2.368-4.33,2.964
		C236.496,81.376,234.596,81.674,232.292,81.674"/>
	<path clip-path="url(#SVGID_2_)" fill-rule="evenodd" clip-rule="evenodd" fill="#2A5781" d="M54.609,1.51
		c12.583,7.265,25.166,14.53,37.749,21.795c3.564,2.057,5.458,5.439,5.458,9.758c0,14.453,0,28.904,0,43.357
		c0,4.098-1.855,7.321-5.373,9.352c-12.56,7.252-25.122,14.505-37.683,21.757c-3.658,2.11-7.615,2.102-11.293-0.022
		c-12.532-7.233-25.062-14.47-37.592-21.704c-2.978-1.72-5.426-5.179-5.426-9.548c0-25.445,0-19.669,0-45.114
		c0-3.963,1.869-5.964,5.37-7.985l15.055-8.694c0,18.738,0,37.679,0,56.418l28.259,16.313L77.39,70.879V38.248L49.133,21.935
		l-11.877,6.857V5.206c2.139-1.234,4.276-2.469,6.414-3.703C47.004-0.423,51.11-0.509,54.609,1.51"/>
</g>
<g>
	<defs>
		<rect id="SVGID_3_" width="318" height="110"/>
	</defs>
	<clipPath id="SVGID_4_">
		<use xlink:href="#SVGID_3_"  overflow="visible"/>
	</clipPath>
	<polyline clip-path="url(#SVGID_4_)" fill-rule="evenodd" clip-rule="evenodd" fill="#213953" points="60.999,47.65 60.999,61.353 
		55.067,64.779 49.134,68.204 43.2,64.779 37.269,61.353 37.269,47.65 49.134,40.8 60.999,47.65 	"/>
</g>
<g>
	<defs>
		<polyline id="SVGID_5_" points="49.133,54.565 49.133,54.502 37.693,47.895 49.134,41.29 60.574,47.895 49.134,54.502 
			49.133,54.565 		"/>
	</defs>
	<clipPath id="SVGID_6_">
		<use xlink:href="#SVGID_5_"  overflow="visible"/>
	</clipPath>
	<g clip-path="url(#SVGID_6_)">
		<defs>
			<rect id="SVGID_7_" width="318" height="110"/>
		</defs>
		<clipPath id="SVGID_8_">
			<use xlink:href="#SVGID_7_"  overflow="visible"/>
		</clipPath>
		<g clip-path="url(#SVGID_8_)">
			<defs>
				<rect id="SVGID_9_" x="36.948" y="40.268" width="24.504" height="15.024"/>
			</defs>
			<clipPath id="SVGID_10_">
				<use xlink:href="#SVGID_9_"  overflow="visible"/>
			</clipPath>
			<g transform="matrix(1 0 0 1 -3.814697e-06 0)" clip-path="url(#SVGID_10_)">
				
					<image overflow="visible" width="51" height="31" xlink:href="87A1CB8F704B44BA.jpg"  transform="matrix(0.4805 0 0 0.4846 36.9482 40.2681)">
				</image>
			</g>
		</g>
	</g>
</g>
<g>
	<defs>
		<polyline id="SVGID_11_" points="49.134,67.716 49.134,54.565 60.574,47.895 60.574,61.108 49.134,67.716 		"/>
	</defs>
	<clipPath id="SVGID_12_">
		<use xlink:href="#SVGID_11_"  overflow="visible"/>
	</clipPath>
	<g clip-path="url(#SVGID_12_)">
		<defs>
			<rect id="SVGID_13_" width="318" height="110"/>
		</defs>
		<clipPath id="SVGID_14_">
			<use xlink:href="#SVGID_13_"  overflow="visible"/>
		</clipPath>
		<g clip-path="url(#SVGID_14_)">
			<defs>
				<rect id="SVGID_15_" x="48.468" y="46.988" width="12.984" height="21.745"/>
			</defs>
			<clipPath id="SVGID_16_">
				<use xlink:href="#SVGID_15_"  overflow="visible"/>
			</clipPath>
			<g transform="matrix(1 0 0 1 0 3.814697e-06)" clip-path="url(#SVGID_16_)">
				
					<image overflow="visible" width="27" height="45" xlink:href="87A1CB8F704B44BE.jpg"  transform="matrix(0.4809 0 0 0.4832 48.4678 46.9878)">
				</image>
			</g>
		</g>
	</g>
</g>
<g>
	<defs>
		<polyline id="SVGID_17_" points="49.134,54.565 49.134,54.502 60.574,47.895 49.133,54.565 		"/>
	</defs>
	<clipPath id="SVGID_18_">
		<use xlink:href="#SVGID_17_"  overflow="visible"/>
	</clipPath>
	<g clip-path="url(#SVGID_18_)">
		<defs>
			<rect id="SVGID_19_" width="318" height="110"/>
		</defs>
		<clipPath id="SVGID_20_">
			<use xlink:href="#SVGID_19_"  overflow="visible"/>
		</clipPath>
		<g clip-path="url(#SVGID_20_)">
			<defs>
				<rect id="SVGID_21_" x="48.468" y="46.988" width="12.984" height="8.304"/>
			</defs>
			<clipPath id="SVGID_22_">
				<use xlink:href="#SVGID_21_"  overflow="visible"/>
			</clipPath>
			<g clip-path="url(#SVGID_22_)">
				
					<image overflow="visible" width="27" height="17" xlink:href="87A1CB8F704B44B9.jpg"  transform="matrix(0.4809 0 0 0.4885 48.4678 46.9878)">
				</image>
			</g>
		</g>
	</g>
</g>
<g>
	<defs>
		<polyline id="SVGID_23_" points="49.133,67.716 37.693,61.108 37.693,47.895 49.133,54.565 49.133,67.716 		"/>
	</defs>
	<clipPath id="SVGID_24_">
		<use xlink:href="#SVGID_23_"  overflow="visible"/>
	</clipPath>
	<g clip-path="url(#SVGID_24_)">
		<defs>
			<rect id="SVGID_25_" width="318" height="110"/>
		</defs>
		<clipPath id="SVGID_26_">
			<use xlink:href="#SVGID_25_"  overflow="visible"/>
		</clipPath>
		<g clip-path="url(#SVGID_26_)">
			<defs>
				<rect id="SVGID_27_" x="36.948" y="46.988" width="12.984" height="21.745"/>
			</defs>
			<clipPath id="SVGID_28_">
				<use xlink:href="#SVGID_27_"  overflow="visible"/>
			</clipPath>
			<g transform="matrix(1 0 0 1 3.814697e-06 3.814697e-06)" clip-path="url(#SVGID_28_)">
				
					<image overflow="visible" width="27" height="45" xlink:href="87A1CB8F704B44BB.jpg"  transform="matrix(0.4809 0 0 0.4832 36.9482 46.9878)">
				</image>
			</g>
		</g>
	</g>
</g>
<g>
	<defs>
		<polyline id="SVGID_29_" points="49.133,54.565 37.693,47.895 49.133,54.502 49.133,54.565 		"/>
	</defs>
	<clipPath id="SVGID_30_">
		<use xlink:href="#SVGID_29_"  overflow="visible"/>
	</clipPath>
	<g clip-path="url(#SVGID_30_)">
		<defs>
			<rect id="SVGID_31_" width="318" height="110"/>
		</defs>
		<clipPath id="SVGID_32_">
			<use xlink:href="#SVGID_31_"  overflow="visible"/>
		</clipPath>
		<g clip-path="url(#SVGID_32_)">
			<defs>
				<rect id="SVGID_33_" x="36.948" y="46.988" width="12.984" height="8.304"/>
			</defs>
			<clipPath id="SVGID_34_">
				<use xlink:href="#SVGID_33_"  overflow="visible"/>
			</clipPath>
			<g transform="matrix(1 0 0 1 3.814697e-06 0)" clip-path="url(#SVGID_34_)">
				
					<image overflow="visible" width="27" height="17" xlink:href="87A1CB8F704B44B8.jpg"  transform="matrix(0.4809 0 0 0.4885 36.9482 46.9878)">
				</image>
			</g>
		</g>
	</g>
</g>
<g>
	<defs>
		<path id="SVGID_35_" d="M77.813,38.123v-0.118L49.132,21.444L37.68,28.057V5.451c2.068-1.193,4.134-2.387,6.203-3.582
			c1.638-0.946,3.441-1.418,5.245-1.418c1.81,0,3.622,0.476,5.268,1.427c12.584,7.265,25.166,14.529,37.75,21.793
			c1.767,1.021,3.078,2.358,3.948,3.947L77.813,38.123"/>
	</defs>
	<clipPath id="SVGID_36_">
		<use xlink:href="#SVGID_35_"  overflow="visible"/>
	</clipPath>
	<g clip-path="url(#SVGID_36_)">
		<defs>
			<rect id="SVGID_37_" width="318" height="110"/>
		</defs>
		<clipPath id="SVGID_38_">
			<use xlink:href="#SVGID_37_"  overflow="visible"/>
		</clipPath>
		<g clip-path="url(#SVGID_38_)">
			<defs>
				<rect id="SVGID_39_" x="36.948" y="-0.532" width="60.024" height="39.504"/>
			</defs>
			<clipPath id="SVGID_40_">
				<use xlink:href="#SVGID_39_"  overflow="visible"/>
			</clipPath>
			<g transform="matrix(1 0 0 1 0 -5.960464e-08)" clip-path="url(#SVGID_40_)">
				
					<image overflow="visible" width="125" height="82" xlink:href="87A1CB8F704B44C6.jpg"  transform="matrix(0.4802 0 0 0.4818 36.9482 -0.5322)">
				</image>
			</g>
		</g>
	</g>
</g>
<g>
	<defs>
		<path id="SVGID_41_" d="M3.622,24.604c0.705-0.667,1.538-1.269,2.489-1.819l14.421-8.326c0,0.067,0,0.133,0,0.2L5.819,23.155
			C4.995,23.631,4.262,24.105,3.622,24.604"/>
	</defs>
	<clipPath id="SVGID_42_">
		<use xlink:href="#SVGID_41_"  overflow="visible"/>
	</clipPath>
	<g clip-path="url(#SVGID_42_)">
		<defs>
			<rect id="SVGID_43_" width="318" height="110"/>
		</defs>
		<clipPath id="SVGID_44_">
			<use xlink:href="#SVGID_43_"  overflow="visible"/>
		</clipPath>
		<g clip-path="url(#SVGID_44_)">
			<defs>
				<rect id="SVGID_45_" x="2.868" y="13.868" width="18.264" height="11.664"/>
			</defs>
			<clipPath id="SVGID_46_">
				<use xlink:href="#SVGID_45_"  overflow="visible"/>
			</clipPath>
			<g clip-path="url(#SVGID_46_)">
				
					<image overflow="visible" width="38" height="24" xlink:href="87A1CB8F704B44C9.jpg"  transform="matrix(0.4806 0 0 0.486 2.8682 13.8682)">
				</image>
			</g>
		</g>
	</g>
</g>
<g>
	<defs>
		<path id="SVGID_47_" d="M2.258,81.542c-0.896-1.592-1.384-3.415-1.384-5.288c0-15.037,0-30.076,0-45.114
			c0-2.741,0.964-4.848,2.748-6.536c0.64-0.499,1.373-0.973,2.197-1.449l14.713-8.496c0,19.068-0.08,37.143-0.08,56.221v0.207
			L2.258,81.542"/>
	</defs>
	<clipPath id="SVGID_48_">
		<use xlink:href="#SVGID_47_"  overflow="visible"/>
	</clipPath>
	<g clip-path="url(#SVGID_48_)">
		<defs>
			<rect id="SVGID_49_" width="318" height="110"/>
		</defs>
		<clipPath id="SVGID_50_">
			<use xlink:href="#SVGID_49_"  overflow="visible"/>
		</clipPath>
		<g clip-path="url(#SVGID_50_)">
			<defs>
				<rect id="SVGID_51_" x="-0.012" y="13.868" width="21.144" height="68.304"/>
			</defs>
			<clipPath id="SVGID_52_">
				<use xlink:href="#SVGID_51_"  overflow="visible"/>
			</clipPath>
			<g transform="matrix(1 0 0 1 9.313226e-10 -9.536743e-07)" clip-path="url(#SVGID_52_)">
				
					<image overflow="visible" width="44" height="142" xlink:href="87A1CB8F704B44CA.jpg"  transform="matrix(0.4805 0 0 0.481 -0.0122 13.8682)">
				</image>
			</g>
		</g>
	</g>
</g>
</svg>
