<?xml version="1.0" encoding="utf-8"?>
<!-- Generator: Adobe Illustrator 16.0.0, SVG Export Plug-In . SVG Version: 6.00 Build 0)  -->
<!DOCTYPE svg PUBLIC "-//W3C//DTD SVG 1.1//EN" "http://www.w3.org/Graphics/SVG/1.1/DTD/svg11.dtd">
<svg version="1.1" id="Layer_1" xmlns="http://www.w3.org/2000/svg" xmlns:xlink="http://www.w3.org/1999/xlink" x="0px" y="0px"
	 width="595.275px" height="595.275px" viewBox="0 0 595.275 595.275" enable-background="new 0 0 595.275 595.275"
	 xml:space="preserve">
<g id="Circle">
</g>
<g id="Lines">
</g>
<g id="Dashed_Lines">
</g>
<g id="Nodes">
</g>
<g id="Empty_Nodes">
	<g>
		<path fill="#231F20" d="M448.771,287.193c0,89.236-72.34,161.574-161.577,161.574c-89.234,0-161.573-72.338-161.573-161.574
			c0-89.233,72.34-161.571,161.573-161.571C376.43,125.622,448.771,197.96,448.771,287.193z"/>
		<g>
			
				<rect x="197.254" y="331.702" transform="matrix(-0.9961 -0.088 0.088 -0.9961 368.0839 681.6875)" fill="#FFFFFF" width="3.639" height="2.051"/>
			
				<rect x="190.005" y="331.061" transform="matrix(-0.9961 -0.0878 0.0878 -0.9961 353.7679 679.7254)" fill="#FFFFFF" width="3.639" height="2.052"/>
			
				<rect x="182.758" y="330.416" transform="matrix(-0.9962 -0.0875 0.0875 -0.9962 339.4559 677.7587)" fill="#FFFFFF" width="3.639" height="2.052"/>
			
				<rect x="204.505" y="332.341" transform="matrix(-0.9961 -0.0878 0.0878 -0.9961 382.5949 683.5565)" fill="#FFFFFF" width="3.639" height="2.053"/>
			
				<rect x="175.518" y="329.791" transform="matrix(0.9961 0.088 -0.088 0.9961 29.7983 -14.3217)" fill="#FFFFFF" width="3.64" height="2.052"/>
			
				<rect x="201.713" y="289.316" transform="matrix(-0.719 0.695 -0.695 -0.719 551.5698 357.6688)" fill="#FFFFFF" width="3.528" height="2.053"/>
			
				<rect x="197.368" y="293.476" transform="matrix(-0.6948 -0.7192 0.7192 -0.6948 123.8812 643.0551)" fill="#FFFFFF" width="2.054" height="3.528"/>
			
				<rect x="181.426" y="308.925" transform="matrix(-0.7188 0.6952 -0.6952 -0.7188 530.3426 405.407)" fill="#FFFFFF" width="3.527" height="2.05"/>
			
				<rect x="171.276" y="318.751" transform="matrix(0.7188 -0.6952 0.6952 0.7188 -173.6494 210.1998)" fill="#FFFFFF" width="3.527" height="2.052"/>
			
				<rect x="187.234" y="303.287" transform="matrix(-0.6952 -0.7188 0.7188 -0.6952 99.8753 652.448)" fill="#FFFFFF" width="2.052" height="3.527"/>
			
				<rect x="176.348" y="313.84" transform="matrix(-0.7192 0.6948 -0.6948 -0.7192 524.9819 417.5561)" fill="#FFFFFF" width="3.528" height="2.051"/>
			
				<rect x="191.567" y="299.125" transform="matrix(-0.719 0.695 -0.695 -0.719 540.9386 381.6148)" fill="#FFFFFF" width="3.528" height="2.053"/>
			
				<rect x="216.35" y="313.34" transform="matrix(-0.1307 -0.9914 0.9914 -0.1307 -65.1162 571.6366)" fill="#FFFFFF" width="3.407" height="2.051"/>
			
				<rect x="217.241" y="320.098" transform="matrix(-0.1308 -0.9914 0.9914 -0.1308 -70.7813 580.1925)" fill="#FFFFFF" width="3.408" height="2.052"/>
			
				<rect x="215.458" y="306.583" transform="matrix(-0.1307 -0.9914 0.9914 -0.1307 -59.4162 563.1218)" fill="#FFFFFF" width="3.406" height="2.052"/>
			
				<rect x="214.555" y="299.819" transform="matrix(-0.1308 -0.9914 0.9914 -0.1308 -53.7137 554.5966)" fill="#FFFFFF" width="3.408" height="2.052"/>
			
				<rect x="213.669" y="293.062" transform="matrix(0.1311 0.9914 -0.9914 0.1311 478.6858 42.0178)" fill="#FFFFFF" width="3.408" height="2.051"/>
			<path fill="#FFFFFF" d="M383.948,342.768c0-2.141-1.735-3.877-3.876-3.877c-1.064,0-2.028,0.428-2.729,1.123l-4.985-2.666
				c0.01-0.1,0.029-0.196,0.029-0.299c0-1.66-1.342-3.006-3.001-3.006c-1.663,0-3.004,1.346-3.004,3.006
				c0,0.752,0.284,1.43,0.738,1.955l-3.186,6.297c-0.261-0.052-0.53-0.082-0.806-0.082c-2.32,0-4.201,1.882-4.201,4.201
				c0,1.096,0.428,2.082,1.113,2.828l-4.775,7.73c-0.474-0.155-0.971-0.26-1.496-0.26c-2.678,0-4.85,2.17-4.85,4.85
				c0,0.922,0.272,1.777,0.721,2.512l-11.275,11.26c-0.735-0.449-1.59-0.723-2.516-0.723c-2.681,0-4.847,2.172-4.847,4.852
				c0,0.262,0.036,0.515,0.077,0.766l-16.609,6.968c-0.883-1.194-2.289-1.979-3.889-1.979c-2.245,0-4.113,1.531-4.666,3.6
				l-22.833-0.516c-0.474-2.18-2.41-3.814-4.73-3.814c-1.457,0-2.746,0.654-3.634,1.67l-21.705-11.309
				c0.092-0.373,0.154-0.759,0.154-1.16c0-2.68-2.17-4.848-4.848-4.848c-0.573,0-1.112,0.117-1.623,0.299l-21.869-33.32
				c1.085-1.066,1.762-2.547,1.762-4.185c0-3.148-2.496-5.706-5.608-5.847l-0.362-2.742l-2.034,0.271l0.361,2.746
				c-1.888,0.604-3.353,2.121-3.875,4.045l-3.219-0.284l-0.18,2.044l3.225,0.283c0.214,2.413,1.876,4.393,4.121,5.078l-4.608,46.674
				c-0.693,0.077-1.339,0.275-1.929,0.588l-44.683-53.875c0.603-0.716,1.029-1.576,1.27-2.51l2.728,0.24l0.181-2.044l-2.728-0.24
				c-0.086-1.161-0.481-2.229-1.111-3.134l1.81-1.75l-1.426-1.477l-1.812,1.752c-0.701-0.521-1.5-0.92-2.379-1.119l3.007-72.674
				c1.168-0.183,2.225-0.695,3.07-1.449l37.64,28.579c-0.42,0.835-0.662,1.775-0.662,2.771c0,1.301,0.406,2.508,1.093,3.506
				l-1.912,1.849l1.426,1.474l1.915-1.851c0.974,0.72,2.164,1.161,3.456,1.206l0.317,2.403l2.034-0.27l-0.316-2.395
				c2.532-0.779,4.38-3.139,4.38-5.923c0-2.387-1.359-4.459-3.341-5.494l15.609-51.52c0.091,0.004,0.177,0.026,0.27,0.026
				c2.676,0,4.847-2.171,4.847-4.849c0-0.529-0.105-1.03-0.263-1.507l47.835-29.728c0.907,0.905,2.156,1.465,3.539,1.465
				c2.077,0,3.858-1.263,4.618-3.061l28.001,4.789c0.175,2.517,2.252,4.513,4.813,4.513c1.157,0,2.205-0.421,3.038-1.096
				l11.073,8.441c-0.262,0.597-0.414,1.253-0.414,1.946c0,2.679,2.17,4.85,4.849,4.85c0.376,0,0.737-0.052,1.089-0.134
				l11.297,22.538c-0.836,0.766-1.369,1.856-1.369,3.077c0,2.312,1.875,4.184,4.187,4.184c2.148,0,3.897-1.622,4.138-3.704
				l5.688-0.93c0.612,1.179,1.83,1.993,3.25,1.993c2.032,0,3.678-1.648,3.678-3.678c0-1.761-1.24-3.228-2.895-3.588l-1.248-12.414
				c1.291-0.57,2.193-1.856,2.193-3.36c0-1.702-1.162-3.121-2.733-3.538l-1.568-28.096c2.163-0.619,3.754-2.588,3.754-4.948
				c0-2.856-2.313-5.172-5.171-5.172c-2.187,0-4.045,1.361-4.801,3.278l-45.032-6.95c-0.212-2.482-2.271-4.438-4.806-4.438
				c-2.121,0-3.904,1.372-4.562,3.269l-22.87-2.182c-0.347-2.147-2.192-3.788-4.436-3.788c-2.492,0-4.507,2.018-4.507,4.509
				c0,0.003,0.002,0.007,0.002,0.01l-19.059,5.029c-0.82-1.512-2.402-2.55-4.244-2.55c-2.679,0-4.847,2.169-4.847,4.847
				c0,0.327,0.035,0.643,0.096,0.951l-39.27,18.243c-0.888-1.11-2.24-1.837-3.773-1.837c-2.679,0-4.847,2.17-4.847,4.847
				c0,1.117,0.392,2.132,1.025,2.951l-33.41,41.739c-0.829-0.435-1.759-0.705-2.761-0.705c-3.3,0-5.979,2.676-5.979,5.979
				c0,2.825,1.965,5.175,4.598,5.8l-3.008,72.672c-3.089,0.432-5.477,3.086-5.477,6.291c0,3.505,2.852,6.357,6.358,6.357
				c1.131,0,2.191-0.299,3.111-0.82l44.684,53.875c-0.74,0.937-1.199,2.104-1.199,3.391c0,3.031,2.455,5.492,5.492,5.492
				c2.03,0,3.779-1.109,4.731-2.742l36.529,11.965c-0.011,0.125-0.038,0.244-0.038,0.372c0,2.677,2.172,4.849,4.85,4.849
				c2.146,0,3.944-1.406,4.581-3.338l30.044,2.371c0.37,2.309,2.354,4.078,4.77,4.078c2.474,0,4.49-1.857,4.787-4.249l17.731-2.038
				c0.684,1.85,2.447,3.176,4.532,3.176c2.679,0,4.848-2.172,4.848-4.85c0-0.012-0.003-0.021-0.003-0.035l30.137-7.537
				c0.812,1.541,2.412,2.604,4.275,2.604c2.676,0,4.846-2.171,4.846-4.847c0-1.768-0.953-3.297-2.361-4.145l7.35-23.568
				c0.104,0.008,0.202,0.031,0.309,0.031c2.678,0,4.847-2.171,4.847-4.85c0-2.047-1.271-3.789-3.065-4.5l1.963-14
				C382.532,346.288,383.948,344.698,383.948,342.768z M217.75,280.569c0,2.298-1.86,4.16-4.159,4.16
				c-2.297,0-4.157-1.863-4.157-4.16c0-2.298,1.86-4.159,4.157-4.159C215.89,276.41,217.75,278.271,217.75,280.569z
				 M360.298,230.725c-0.271-0.054-0.553-0.084-0.84-0.084c-0.268,0-0.528,0.031-0.781,0.079l-11.3-22.54
				c0.378-0.321,0.708-0.687,0.973-1.107l18.565,6.228c0,0.01-0.003,0.019-0.003,0.028c0,1.005,0.403,1.914,1.057,2.576
				L360.298,230.725z M371.049,229.333c-1.123,0.498-1.94,1.541-2.136,2.796l-5.675,0.926c-0.226-0.481-0.538-0.911-0.921-1.271
				l7.518-14.523L371.049,229.333z M366.096,181.275c0.491,0.266,1.02,0.46,1.589,0.556l1.567,28.082
				c-0.645,0.252-1.196,0.682-1.604,1.23l-18.586-6.236c0.012-0.137,0.041-0.269,0.041-0.41c0-1.04-0.334-1.997-0.891-2.787
				L366.096,181.275z M364.103,179.354c0.085,0.146,0.172,0.29,0.271,0.425l-17.888,20.438c-0.67-0.351-1.422-0.568-2.229-0.568
				c-1.156,0-2.204,0.422-3.036,1.098l-11.074-8.441c0.264-0.597,0.415-1.253,0.415-1.948c0-0.115-0.025-0.222-0.034-0.334
				L364.103,179.354z M318.384,170.16l45.026,6.949c0.001,0.023,0.004,0.046,0.006,0.071l-20.083,6.382l-13.491,4.288
				c-0.851-1.396-2.373-2.338-4.131-2.338c-0.421,0-0.822,0.07-1.212,0.172l-7.373-13.769
				C317.665,171.43,318.104,170.84,318.384,170.16z M310.478,171.743c0.878,0.876,2.089,1.418,3.428,1.418
				c0.422,0,0.822-0.07,1.212-0.171l7.373,13.769c-0.52,0.466-0.948,1.03-1.229,1.682l-28.002-4.79
				c-0.027-0.435-0.109-0.852-0.241-1.251L310.478,171.743z M286.257,166.822l22.872,2.182c0.038,0.27,0.102,0.528,0.182,0.78
				l-16.862,10.292l-0.601,0.367c-0.909-0.923-2.17-1.498-3.569-1.498c-0.156,0-0.302,0.032-0.455,0.045l-3.324-9.948
				C285.305,168.518,285.919,167.738,286.257,166.822z M259.067,172.511l19.063-5.029c0.773,1.366,2.224,2.299,3.907,2.299
				c0.101,0,0.196-0.023,0.295-0.029l3.325,9.951c-0.663,0.411-1.221,0.968-1.63,1.633l-24.991-8.328
				c0.011-0.135,0.04-0.264,0.04-0.401C259.077,172.577,259.068,172.546,259.067,172.511z M254.23,177.457
				c1.731,0,3.239-0.915,4.097-2.28l24.991,8.327c-0.015,0.151-0.045,0.298-0.045,0.453c0,0.561,0.113,1.091,0.283,1.595
				l-47.839,29.729c-0.109-0.108-0.236-0.196-0.355-0.293l17.877-37.633C253.559,177.42,253.889,177.457,254.23,177.457z
				 M211.187,193.864l39.27-18.244c0.217,0.271,0.461,0.516,0.73,0.736l-4.225,8.896l-13.651,28.738
				c-0.321-0.067-0.651-0.104-0.992-0.104c-0.994,0-1.916,0.301-2.685,0.814l-6.615-6.112l-12.366-11.429
				c0.389-0.698,0.629-1.49,0.629-2.346C211.282,194.489,211.248,194.171,211.187,193.864z M209.121,198.847l9.421,8.707l9.56,8.834
				c-0.39,0.697-0.63,1.489-0.63,2.344c0,1.779,0.968,3.319,2.396,4.163l-15.608,51.515c-0.014-0.001-0.029-0.004-0.044-0.007
				l-6.255-75.012C208.373,199.256,208.767,199.082,209.121,198.847z M204.389,199.194c0.407,0.191,0.842,0.32,1.3,0.392
				l6.254,75.015c-0.948,0.262-1.804,0.741-2.512,1.384l-37.641-28.58c0.392-0.795,0.632-1.68,0.632-2.627
				c0-1.475-0.555-2.806-1.438-3.85L204.389,199.194z M167.152,330.369c-0.008,0.039-0.021,0.079-0.029,0.118
				c-0.049,0.211-0.113,0.418-0.192,0.615c-0.025,0.067-0.051,0.133-0.08,0.196c-0.083,0.181-0.178,0.354-0.282,0.519
				c-0.033,0.053-0.06,0.107-0.094,0.156c-0.006,0.01-0.011,0.02-0.017,0.029l-0.003-0.005c-0.442,0.631-1.047,1.134-1.757,1.454
				l0.004,0.004c-0.01,0.005-0.021,0.006-0.029,0.011c-0.177,0.079-0.364,0.132-0.552,0.187c-0.103,0.029-0.199,0.07-0.305,0.094
				c-0.086,0.018-0.18,0.018-0.271,0.03c-0.2,0.03-0.399,0.067-0.609,0.067c-2.375,0-4.307-1.93-4.307-4.304
				c0-0.292,0.036-0.575,0.093-0.851c0.005-0.025,0.013-0.047,0.02-0.072c0.052-0.236,0.123-0.464,0.211-0.684
				c0.026-0.064,0.058-0.126,0.086-0.188c0.079-0.172,0.167-0.338,0.268-0.496c0.049-0.076,0.099-0.15,0.152-0.224
				c0.097-0.132,0.201-0.257,0.311-0.376c0.07-0.078,0.139-0.154,0.215-0.227c0.109-0.102,0.227-0.194,0.348-0.285
				c0.087-0.068,0.172-0.141,0.267-0.201c0.132-0.086,0.274-0.156,0.417-0.228c0.145-0.073,0.294-0.14,0.449-0.194
				c0.165-0.062,0.329-0.123,0.502-0.162v0.005c0.312-0.071,0.634-0.118,0.968-0.118c0.459,0,0.893,0.092,1.31,0.225v-0.004
				c0.019,0.006,0.037,0.016,0.056,0.021c0.186,0.062,0.366,0.135,0.541,0.223c0.031,0.016,0.061,0.033,0.091,0.05
				c0.482,0.255,0.907,0.595,1.257,1.005c0.084,0.098,0.168,0.191,0.243,0.295c0.058,0.082,0.108,0.167,0.161,0.252
				c0.09,0.146,0.171,0.297,0.245,0.451c0.031,0.068,0.062,0.139,0.089,0.209c0.081,0.203,0.146,0.413,0.196,0.632
				c0.007,0.036,0.021,0.068,0.026,0.104c0.055,0.271,0.091,0.549,0.091,0.837C167.242,329.825,167.204,330.1,167.152,330.369z
				 M369.156,340.032c0.079,0.006,0.151,0.023,0.23,0.023c0.725,0,1.381-0.268,1.899-0.695l4.982,2.666
				c-0.047,0.24-0.075,0.488-0.075,0.742c0,0.098,0.021,0.189,0.029,0.284l-9.763,3.835c-0.148-0.197-0.312-0.379-0.494-0.547
				L369.156,340.032z M361.986,353.444c0.367,0.104,0.746,0.178,1.145,0.178c0.65,0,1.26-0.16,1.81-0.424l8.033,9.111
				c-0.321,0.457-0.552,0.975-0.699,1.529l-3.334-0.073l-10.438-0.231c-0.2-0.912-0.651-1.729-1.284-2.371L361.986,353.444z
				 M216.83,334.665c0-2.15,1.742-3.891,3.89-3.891c2.151,0,3.892,1.74,3.892,3.891c0,2.149-1.741,3.893-3.892,3.893
				C218.572,338.557,216.83,336.814,216.83,334.665z M219.385,389.034c-0.677-0.891-1.612-1.555-2.702-1.902l4.609-46.674
				c0.57-0.057,1.122-0.172,1.634-0.379l21.866,33.314c-0.811,0.867-1.316,2.021-1.316,3.303c0,0.332,0.035,0.657,0.099,0.971
				l-5.186,2.438L219.385,389.034z M256.984,404.887l-36.524-11.963c0.021-0.193,0.06-0.382,0.06-0.581
				c0-0.431-0.063-0.847-0.156-1.249l24.202-11.373c0.887,1.103,2.231,1.823,3.758,1.823c0.257,0,0.503-0.036,0.749-0.075
				l9.167,22.061C257.737,403.899,257.312,404.358,256.984,404.887z M263.887,403.48c-0.791-0.561-1.75-0.897-2.792-0.897
				c-0.256,0-0.503,0.037-0.75,0.076l-9.167-22.061c0.287-0.211,0.545-0.457,0.779-0.723l21.705,11.309
				c-0.091,0.373-0.155,0.758-0.155,1.16c0,0.807,0.217,1.559,0.567,2.227L263.887,403.48z M295.906,409.038l-30.042-2.371
				c-0.083-0.521-0.252-1.008-0.487-1.459l10.188-8.91c0.791,0.559,1.748,0.893,2.79,0.893c1.093,0,2.091-0.373,2.901-0.985
				l7.491,6.159l7.393,6.078C296.047,408.635,295.973,408.833,295.906,409.038z M302.21,405.287l-0.36,0.624
				c-0.435-0.127-0.884-0.217-1.36-0.217c-1.094,0-2.091,0.376-2.901,0.988l-14.883-12.238c0.132-0.272,0.235-0.557,0.315-0.855
				l22.831,0.518c0.21,0.963,0.706,1.812,1.393,2.467L302.21,405.287z M322.754,406.839l-17.729,2.035
				c-0.259-0.701-0.665-1.325-1.194-1.832l4.058-7.025l1.337-2.314c0.434,0.127,0.883,0.217,1.358,0.217
				c1.068,0,2.048-0.356,2.848-0.941l9.79,8.293C322.98,405.754,322.822,406.28,322.754,406.839z M327.541,402.581
				c-1.069,0-2.05,0.357-2.851,0.945l-9.79-8.291c0.329-0.654,0.53-1.383,0.53-2.164c0-0.262-0.036-0.514-0.077-0.765l16.608-6.967
				c0.36,0.487,0.807,0.905,1.322,1.229l-5.344,16.053C327.806,402.61,327.678,402.581,327.541,402.581z M361.951,397.65
				l-30.136,7.536c-0.4-0.76-0.982-1.4-1.706-1.855l5.345-16.053c0.133,0.012,0.262,0.039,0.398,0.039
				c1.501,0,2.826-0.695,3.714-1.766l22.501,11.016c-0.074,0.338-0.119,0.688-0.119,1.047
				C361.948,397.626,361.951,397.638,361.951,397.65z M363.084,394.528l-22.502-11.018c0.073-0.336,0.118-0.682,0.118-1.039
				c0-0.926-0.271-1.779-0.721-2.516l11.274-11.26c0.736,0.45,1.593,0.723,2.519,0.723c0.226,0,0.441-0.035,0.658-0.066
				l9.578,24.303C363.66,393.901,363.358,394.2,363.084,394.528z M367.103,392.796c-0.103-0.007-0.2-0.031-0.305-0.031
				c-0.228,0-0.443,0.037-0.662,0.066l-5.916-15.012l-3.662-9.291c0.915-0.645,1.583-1.602,1.878-2.715l8.052,0.18l5.721,0.127
				c0.287,1.324,1.12,2.432,2.245,3.107L367.103,392.796z M376.462,360.282c-0.636,0.063-1.232,0.244-1.771,0.529l-3.985-4.521
				l-4.053-4.596c0.425-0.656,0.677-1.432,0.677-2.271c0-0.141-0.028-0.273-0.041-0.409l6.51-2.558l3.256-1.279
				c0.368,0.46,0.833,0.836,1.373,1.09L376.462,360.282z"/>
		</g>
	</g>
</g>
<g id="Type">
</g>
</svg>
