<?xml version="1.0" encoding="utf-8"?>
<!-- Generator: Adobe Illustrator 16.0.0, SVG Export Plug-In . SVG Version: 6.00 Build 0)  -->
<!DOCTYPE svg PUBLIC "-//W3C//DTD SVG 1.1//EN" "http://www.w3.org/Graphics/SVG/1.1/DTD/svg11.dtd">
<svg version="1.1" id="Layer_1" xmlns="http://www.w3.org/2000/svg" xmlns:xlink="http://www.w3.org/1999/xlink" x="0px" y="0px"
	 width="1002.076px" height="346.819px" viewBox="0 0 1002.076 346.819" enable-background="new 0 0 1002.076 346.819"
	 xml:space="preserve">
<g>
	<g>
		<path fill="#1B181C" d="M348.503,109.246v40.766c0,11.418-9.209,20.628-20.628,20.628H313.14c-3.314,0-5.894-2.579-5.894-5.894
			V94.512c0-3.316,2.579-5.895,5.894-5.895h14.735C339.294,88.617,348.503,97.826,348.503,109.246z M327.875,100.404h-8.841v58.447
			h8.841c4.911,0,8.84-3.929,8.84-8.84v-40.766C336.715,104.334,332.786,100.404,327.875,100.404z"/>
		<path fill="#1B181C" d="M359.801,165.236V94.02c0-3.314,2.579-5.894,5.894-5.894c3.315,0,5.895,2.579,5.895,5.894v71.217
			c0,3.316-2.579,5.895-5.895,5.895C362.38,171.131,359.801,168.553,359.801,165.236z"/>
		<path fill="#1B181C" d="M384.358,164.746V94.512c0-3.316,2.579-5.895,5.894-5.895h24.558c3.315,0,5.895,2.578,5.895,5.895
			c0,3.314-2.579,5.893-5.895,5.893h-18.663v22.103h16.208c3.314,0,5.894,2.579,5.894,5.894c0,3.315-2.579,5.895-5.894,5.895
			h-16.208v30.451c0,3.314-2.579,5.894-5.895,5.894C386.938,170.64,384.358,168.061,384.358,164.746z"/>
		<path fill="#1B181C" d="M448.209,159.343c4.788,0,8.841-3.929,8.841-8.841V94.02c0-3.314,2.578-5.894,5.894-5.894
			s5.894,2.579,5.894,5.894v56.482c0,11.42-9.332,20.629-20.628,20.629c-11.42,0-20.629-9.209-20.629-20.629V94.02
			c0-3.314,2.579-5.894,5.895-5.894c3.314,0,5.894,2.579,5.894,5.894v56.482C439.368,155.414,443.297,159.343,448.209,159.343z"/>
		<path fill="#1B181C" d="M506.289,150.625c0.245-2.824-0.614-5.279-2.579-7.367l-19.646-20.137
			c-4.298-4.298-6.263-10.068-5.771-15.963c0.491-5.894,3.315-11.297,8.104-14.857c4.788-3.561,10.805-4.911,16.576-3.807
			c5.771,1.352,10.805,4.666,13.752,9.946c1.597,2.824,0.614,6.263-2.21,8.104c-2.824,1.596-6.385,0.613-7.981-2.211
			c-1.351-2.21-3.315-3.684-5.894-4.297c-2.579-0.492-5.034,0.122-7.122,1.719c-2.087,1.596-3.315,3.684-3.438,6.385
			c-0.246,2.578,0.613,4.912,2.455,6.754l19.523,20.137c4.298,4.42,6.508,10.437,6.017,16.453
			c-0.491,6.262-3.561,11.542-8.35,15.349c-4.911,3.807-11.051,5.034-17.067,3.929c-6.017-1.35-11.174-4.911-14.12-10.191
			c-1.842-2.824-0.737-6.508,2.087-8.104s6.263-0.613,8.104,2.211c1.351,2.332,3.438,3.929,6.262,4.543
			c2.824,0.49,5.402-0.123,7.613-1.842C504.938,155.782,505.92,153.449,506.289,150.625z"/>
		<path fill="#1B181C" d="M527.531,165.236V94.02c0-3.314,2.579-5.894,5.894-5.894c3.315,0,5.895,2.579,5.895,5.894v71.217
			c0,3.316-2.579,5.895-5.895,5.895C530.11,171.131,527.531,168.553,527.531,165.236z"/>
		<path fill="#1B181C" d="M550.615,150.502v-41.748c0-11.418,9.332-20.628,20.629-20.628c11.419,0,20.628,9.21,20.628,20.628v41.748
			c0,11.42-9.209,20.629-20.628,20.629C559.947,171.131,550.615,161.922,550.615,150.502z M561.421,73.883l12.278-11.051
			c2.333-2.088,5.771-1.842,7.858,0.491c2.088,2.333,1.965,5.771-0.368,7.858l-12.278,11.051c-2.333,2.088-5.894,1.842-7.858-0.491
			C558.965,79.408,559.088,75.971,561.421,73.883z M562.403,108.754v41.748c0,4.912,4.052,8.841,8.841,8.841
			c4.911,0,8.841-3.929,8.841-8.841v-41.748c0-4.911-3.93-8.84-8.841-8.84C566.455,99.914,562.403,103.843,562.403,108.754z"/>
		<path fill="#1B181C" d="M638.163,167.815c-2.455-5.28-5.034-10.56-7.735-16.085c-4.543-9.332-10.437-21.242-15.471-31.926v45.432
			c0,3.316-2.579,5.895-5.895,5.895c-3.314,0-5.894-2.578-5.894-5.895V94.02c0-2.824,1.719-5.156,4.543-5.771
			s5.28,0.737,6.631,3.192c2.456,5.279,5.034,10.56,7.735,16.086c4.543,9.331,10.191,21.242,15.472,31.924V94.02
			c0-3.314,2.578-5.894,5.894-5.894s5.894,2.579,5.894,5.894v71.217c0,2.824-1.964,5.158-4.543,5.771
			C641.97,171.621,639.269,170.271,638.163,167.815z"/>
		<path fill="#1B181C" d="M725.466,130.856v19.646c0,11.42-9.209,20.629-20.628,20.629c-11.297,0-20.629-9.209-20.629-20.629
			v-41.748c0-9.331,6.14-17.559,15.349-19.891c8.964-2.334,18.541,1.35,23.207,9.577c1.597,2.824,0.614,6.263-2.21,8.104
			c-2.824,1.596-6.385,0.613-7.981-2.211c-2.087-3.438-6.14-5.156-9.945-4.052c-3.93,0.982-6.631,4.543-6.631,8.472v41.748
			c0,4.912,4.052,8.841,8.841,8.841c4.911,0,8.841-3.929,8.841-8.841V136.75h-6.386c-3.314,0-5.894-2.578-5.894-5.894
			s2.579-5.894,5.894-5.894h12.279C722.888,124.963,725.466,127.541,725.466,130.856z"/>
		<path fill="#1B181C" d="M766.479,134.417l10.683,28.732c1.351,3.069-0.368,6.508-3.438,7.612
			c-3.069,1.105-6.262-0.367-7.612-3.438l-11.42-30.574h-6.63v28.486c0,3.316-2.579,5.895-5.895,5.895
			c-3.314,0-5.894-2.578-5.894-5.895V94.512c0-3.316,2.579-5.895,5.894-5.895h14.735c11.419,0,20.628,9.209,20.628,20.629v6.875
			C777.529,124.104,773.231,130.979,766.479,134.417z M756.901,124.963c4.911,0,8.84-3.93,8.84-8.842v-6.875
			c0-4.912-3.929-8.842-8.84-8.842h-8.841v24.559H756.901z"/>
		<path fill="#1B181C" d="M828.731,170.885c-3.315,0.859-6.386-0.982-7.245-4.052c-0.368-0.982-0.613-2.21-0.982-3.562
			c-0.613-2.332-1.596-5.525-2.578-9.331h-20.874c-1.104,3.806-1.965,6.999-2.578,9.331c-0.368,1.352-0.614,2.579-0.982,3.562
			c-0.859,3.069-3.93,4.911-7.244,4.052c-3.07-0.859-4.912-3.93-4.053-7.244l19.646-71.217c0.614-2.578,2.824-4.298,5.648-4.298
			s5.034,1.72,5.647,4.298l19.646,71.217C833.643,166.955,831.801,170.025,828.731,170.885z M817.803,63.323
			c2.088,2.333,1.842,5.771-0.491,7.858l-12.278,11.051c-2.333,2.088-5.771,1.842-7.858-0.491c-2.088-2.333-1.842-5.771,0.491-7.858
			l12.278-11.051C812.277,60.744,815.716,60.99,817.803,63.323z M807.489,116.244c-2.333,7.981-4.789,17.436-7.122,25.908h14.243
			C812.277,133.68,809.822,124.226,807.489,116.244z"/>
		<path fill="#1B181C" d="M840.397,164.746V94.512c0-3.316,2.579-5.895,5.894-5.895h24.558c3.315,0,5.895,2.578,5.895,5.895
			c0,3.314-2.579,5.893-5.895,5.893h-18.663v22.103h16.208c3.314,0,5.894,2.579,5.894,5.894c0,3.315-2.579,5.895-5.894,5.895
			h-16.208v30.451c0,3.314-2.579,5.894-5.895,5.894C842.977,170.64,840.397,168.061,840.397,164.746z"/>
		<path fill="#1B181C" d="M884.601,165.236V94.02c0-3.314,2.579-5.894,5.894-5.894c3.315,0,5.895,2.579,5.895,5.894v71.217
			c0,3.316-2.579,5.895-5.895,5.895C887.18,171.131,884.601,168.553,884.601,165.236z"/>
		<path fill="#1B181C" d="M907.685,150.502v-41.748c0-9.331,6.263-17.559,15.226-19.891c9.21-2.456,18.419,1.35,23.207,9.577
			c1.842,2.824,0.737,6.263-2.087,8.104c-2.824,1.596-6.263,0.613-8.104-2.211c-1.964-3.438-6.017-5.156-9.945-4.052
			c-3.807,0.982-6.508,4.543-6.508,8.472v41.748c0,4.053,2.701,7.49,6.508,8.596c3.929,0.982,7.981-0.736,9.945-4.175
			c1.842-2.824,5.28-3.807,8.104-2.21c2.824,1.842,3.929,5.279,2.087,8.104c-4.788,8.227-13.997,12.033-23.207,9.578
			C913.947,168.061,907.685,159.957,907.685,150.502z"/>
		<path fill="#1B181C" d="M997.813,170.885c-3.315,0.859-6.386-0.982-7.245-4.052c-0.368-0.982-0.613-2.21-0.982-3.562
			c-0.613-2.332-1.596-5.525-2.578-9.331h-20.874c-1.104,3.806-1.965,6.999-2.578,9.331c-0.368,1.352-0.614,2.579-0.982,3.562
			c-0.859,3.069-3.93,4.911-7.244,4.052c-3.07-0.859-4.912-3.93-4.053-7.244l19.646-71.217c0.614-2.578,2.824-4.298,5.648-4.298
			s5.034,1.72,5.647,4.298l19.646,71.217C1002.725,166.955,1000.883,170.025,997.813,170.885z M976.571,116.244
			c-2.333,7.981-4.789,17.436-7.122,25.908h14.243C981.359,133.68,978.904,124.226,976.571,116.244z"/>
	</g>
	<g>
		<path fill="#1B181C" d="M309.933,217.111c0.477,2.004,0.954,4.057,1.479,6.156c0.906,3.628,2.004,8.21,3.007,12.267
			c0.954-4.057,2.052-8.639,2.959-12.267c0.525-2.1,1.003-4.152,1.479-6.156c0.239-1.099,1.146-1.767,2.243-1.767
			c1.099,0,1.957,0.668,2.196,1.767c0.477,2.004,0.954,4.057,1.479,6.156c0.906,3.628,2.005,8.21,3.007,12.267
			c0.954-4.057,2.053-8.639,2.959-12.267c0.525-2.1,1.002-4.152,1.479-6.156c0.334-1.289,1.479-2.053,2.769-1.719
			s2.005,1.575,1.671,2.768l-6.683,27.684c-0.238,1.098-1.098,1.766-2.195,1.766s-2.005-0.668-2.243-1.766
			c-0.478-2.004-0.955-4.057-1.479-6.157c-0.907-3.627-2.005-8.114-2.96-12.267c-1.002,4.152-2.1,8.64-3.007,12.267
			c-0.524,2.101-1.002,4.153-1.479,6.157c-0.238,1.098-1.098,1.766-2.195,1.766s-2.005-0.668-2.243-1.766l-6.683-27.684
			c-0.334-1.192,0.478-2.434,1.671-2.768C308.453,215.059,309.598,215.822,309.933,217.111z"/>
		<path fill="#1B181C" d="M354.9,217.111c0.477,2.004,0.954,4.057,1.479,6.156c0.906,3.628,2.005,8.21,3.007,12.267
			c0.954-4.057,2.053-8.639,2.959-12.267c0.525-2.1,1.002-4.152,1.479-6.156c0.239-1.099,1.146-1.767,2.243-1.767
			s1.957,0.668,2.196,1.767c0.477,2.004,0.954,4.057,1.479,6.156c0.906,3.628,2.004,8.21,3.007,12.267
			c0.954-4.057,2.052-8.639,2.959-12.267c0.525-2.1,1.003-4.152,1.479-6.156c0.334-1.289,1.479-2.053,2.769-1.719
			s2.005,1.575,1.671,2.768l-6.683,27.684c-0.238,1.098-1.098,1.766-2.195,1.766s-2.005-0.668-2.243-1.766
			c-0.478-2.004-0.955-4.057-1.479-6.157c-0.907-3.627-2.005-8.114-2.96-12.267c-1.002,4.152-2.1,8.64-3.007,12.267
			c-0.524,2.101-1.002,4.153-1.479,6.157c-0.238,1.098-1.098,1.766-2.195,1.766s-2.005-0.668-2.243-1.766l-6.683-27.684
			c-0.334-1.192,0.478-2.434,1.671-2.768C353.42,215.059,354.566,215.822,354.9,217.111z"/>
		<path fill="#1B181C" d="M399.868,217.111c0.477,2.004,0.954,4.057,1.479,6.156c0.906,3.628,2.004,8.21,3.007,12.267
			c0.954-4.057,2.052-8.639,2.959-12.267c0.525-2.1,1.003-4.152,1.479-6.156c0.239-1.099,1.146-1.767,2.243-1.767
			c1.099,0,1.957,0.668,2.196,1.767c0.477,2.004,0.954,4.057,1.479,6.156c0.906,3.628,2.005,8.21,3.007,12.267
			c0.954-4.057,2.053-8.639,2.959-12.267c0.525-2.1,1.002-4.152,1.479-6.156c0.334-1.289,1.479-2.053,2.769-1.719
			s2.005,1.575,1.671,2.768l-6.683,27.684c-0.238,1.098-1.098,1.766-2.195,1.766s-2.005-0.668-2.243-1.766
			c-0.478-2.004-0.955-4.057-1.479-6.157c-0.907-3.627-2.005-8.114-2.96-12.267c-1.002,4.152-2.1,8.64-3.007,12.267
			c-0.524,2.101-1.002,4.153-1.479,6.157c-0.238,1.098-1.098,1.766-2.195,1.766s-2.005-0.668-2.243-1.766l-6.683-27.684
			c-0.334-1.192,0.478-2.434,1.671-2.768C398.389,215.059,399.533,215.822,399.868,217.111z"/>
		<path fill="#1B181C" d="M439.633,242.073c1.527,0,2.769,1.241,2.769,2.769s-1.241,2.768-2.769,2.768s-2.769-1.24-2.769-2.768
			S438.105,242.073,439.633,242.073z"/>
		<path fill="#1B181C" d="M474.383,223.555V239.4c0,4.439-3.58,8.019-8.02,8.019h-5.727c-1.289,0-2.291-1.003-2.291-2.291v-27.302
			c0-1.288,1.002-2.291,2.291-2.291h5.727C470.803,215.535,474.383,219.115,474.383,223.555z M466.363,220.117h-3.436v22.72h3.436
			c1.91,0,3.438-1.527,3.438-3.437v-15.846C469.801,221.645,468.273,220.117,466.363,220.117z"/>
		<path fill="#1B181C" d="M490.424,245.318v-27.683c0-1.288,1.002-2.291,2.291-2.291c1.288,0,2.291,1.003,2.291,2.291v27.683
			c0,1.289-1.003,2.291-2.291,2.291C491.426,247.609,490.424,246.607,490.424,245.318z"/>
		<path fill="#1B181C" d="M511.619,245.128v-27.302c0-1.288,1.002-2.291,2.291-2.291h9.545c1.289,0,2.291,1.003,2.291,2.291
			c0,1.289-1.002,2.291-2.291,2.291h-7.254v8.592h6.3c1.289,0,2.291,1.002,2.291,2.291s-1.002,2.291-2.291,2.291h-6.3v11.837
			c0,1.288-1.003,2.291-2.291,2.291C512.621,247.419,511.619,246.416,511.619,245.128z"/>
		<path fill="#1B181C" d="M548.088,243.027c1.861,0,3.436-1.527,3.436-3.436v-21.956c0-1.288,1.003-2.291,2.291-2.291
			c1.289,0,2.291,1.003,2.291,2.291v21.956c0,4.438-3.627,8.018-8.018,8.018c-4.439,0-8.02-3.579-8.02-8.018v-21.956
			c0-1.288,1.003-2.291,2.291-2.291c1.289,0,2.291,1.003,2.291,2.291v21.956C544.65,241.5,546.178,243.027,548.088,243.027z"/>
		<path fill="#1B181C" d="M582.313,239.639c0.096-1.098-0.238-2.052-1.002-2.863l-7.637-7.828c-1.671-1.67-2.435-3.914-2.243-6.205
			c0.19-2.291,1.289-4.391,3.15-5.774s4.2-1.909,6.443-1.479c2.243,0.524,4.2,1.813,5.346,3.865c0.62,1.098,0.238,2.435-0.859,3.15
			c-1.098,0.621-2.482,0.238-3.103-0.859c-0.524-0.858-1.288-1.432-2.291-1.67c-1.002-0.191-1.957,0.048-2.769,0.668
			c-0.811,0.621-1.288,1.432-1.336,2.482c-0.096,1.002,0.238,1.908,0.954,2.625l7.589,7.827c1.671,1.719,2.53,4.058,2.339,6.396
			c-0.19,2.435-1.384,4.487-3.245,5.967c-1.909,1.479-4.296,1.957-6.635,1.527c-2.339-0.525-4.343-1.909-5.488-3.962
			c-0.717-1.098-0.287-2.529,0.811-3.149c1.099-0.621,2.435-0.239,3.15,0.858c0.525,0.907,1.337,1.527,2.435,1.767
			c1.098,0.19,2.1-0.048,2.959-0.717C581.789,241.644,582.171,240.736,582.313,239.639z"/>
		<path fill="#1B181C" d="M602.221,245.318v-27.683c0-1.288,1.003-2.291,2.291-2.291c1.289,0,2.291,1.003,2.291,2.291v27.683
			c0,1.289-1.002,2.291-2.291,2.291C603.224,247.609,602.221,246.607,602.221,245.318z"/>
		<path fill="#1B181C" d="M622.843,239.592v-16.229c0-4.439,3.58-8.019,8.019-8.019s8.019,3.579,8.019,8.019v16.229
			c0,4.438-3.58,8.018-8.019,8.018S622.843,244.03,622.843,239.592z M627.425,223.363v16.229c0,1.908,1.527,3.436,3.437,3.436
			s3.437-1.527,3.437-3.436v-16.229c0-1.909-1.527-3.437-3.437-3.437S627.425,221.454,627.425,223.363z"/>
		<path fill="#1B181C" d="M668.524,246.321c-0.955-2.053-1.957-4.104-3.007-6.253c-1.767-3.627-4.058-8.257-6.014-12.409v17.659
			c0,1.289-1.003,2.291-2.291,2.291c-1.289,0-2.291-1.002-2.291-2.291v-27.683c0-1.098,0.668-2.005,1.766-2.243
			s2.053,0.286,2.577,1.24c0.955,2.053,1.957,4.105,3.007,6.253c1.767,3.628,3.962,8.257,6.014,12.41v-17.66
			c0-1.288,1.003-2.291,2.291-2.291c1.289,0,2.291,1.003,2.291,2.291v27.683c0,1.098-0.764,2.005-1.766,2.244
			C670.004,247.801,668.954,247.275,668.524,246.321z"/>
		<path fill="#1B181C" d="M704.947,231.955v7.637c0,4.438-3.58,8.018-8.019,8.018c-4.392,0-8.019-3.579-8.019-8.018v-16.229
			c0-3.627,2.387-6.825,5.966-7.732c3.484-0.906,7.208,0.525,9.021,3.723c0.62,1.098,0.238,2.435-0.859,3.15
			c-1.098,0.621-2.481,0.238-3.103-0.859c-0.812-1.336-2.387-2.004-3.866-1.574c-1.527,0.381-2.577,1.766-2.577,3.293v16.229
			c0,1.908,1.575,3.436,3.437,3.436c1.909,0,3.437-1.527,3.437-3.436v-5.346h-2.482c-1.288,0-2.291-1.003-2.291-2.291
			c0-1.289,1.003-2.291,2.291-2.291h4.773C703.945,229.664,704.947,230.666,704.947,231.955z"/>
		<path fill="#1B181C" d="M732.539,233.339l4.152,11.169c0.525,1.193-0.144,2.529-1.337,2.959c-1.192,0.43-2.434-0.144-2.959-1.336
			l-4.438-11.885h-2.578v11.072c0,1.289-1.002,2.291-2.291,2.291c-1.288,0-2.291-1.002-2.291-2.291v-27.492
			c0-1.288,1.003-2.291,2.291-2.291h5.729c4.438,0,8.018,3.58,8.018,8.02v2.672C736.834,229.33,735.164,232.002,732.539,233.339z
			 M728.816,229.664c1.908,0,3.436-1.527,3.436-3.438v-2.672c0-1.91-1.527-3.438-3.436-3.438h-3.438v9.547H728.816z"/>
		<path fill="#1B181C" d="M768.387,247.515c-1.288,0.334-2.481-0.382-2.815-1.575c-0.144-0.382-0.239-0.859-0.382-1.385
			c-0.239-0.906-0.621-2.147-1.003-3.627h-8.113c-0.43,1.479-0.764,2.721-1.003,3.627c-0.143,0.525-0.238,1.003-0.382,1.385
			c-0.334,1.193-1.527,1.909-2.815,1.575c-1.193-0.335-1.909-1.527-1.575-2.816l7.637-27.683c0.238-1.003,1.098-1.671,2.195-1.671
			s1.957,0.668,2.195,1.671l7.637,27.683C770.296,245.987,769.58,247.18,768.387,247.515z M760.13,226.275
			c-0.907,3.102-1.861,6.777-2.769,10.07h5.537C761.991,233.053,761.037,229.377,760.13,226.275z"/>
		<path fill="#1B181C" d="M784.572,245.128v-27.302c0-1.288,1.002-2.291,2.291-2.291h9.545c1.289,0,2.291,1.003,2.291,2.291
			c0,1.289-1.002,2.291-2.291,2.291h-7.254v8.592h6.3c1.289,0,2.291,1.002,2.291,2.291s-1.002,2.291-2.291,2.291h-6.3v11.837
			c0,1.288-1.003,2.291-2.291,2.291C785.574,247.419,784.572,246.416,784.572,245.128z"/>
		<path fill="#1B181C" d="M813.404,245.318v-27.683c0-1.288,1.002-2.291,2.291-2.291c1.288,0,2.291,1.003,2.291,2.291v27.683
			c0,1.289-1.003,2.291-2.291,2.291C814.406,247.609,813.404,246.607,813.404,245.318z"/>
		<path fill="#1B181C" d="M834.026,239.592v-16.229c0-3.627,2.435-6.825,5.919-7.732c3.579-0.954,7.159,0.525,9.021,3.723
			c0.716,1.098,0.286,2.435-0.812,3.15c-1.098,0.621-2.435,0.238-3.15-0.859c-0.764-1.336-2.339-2.004-3.866-1.574
			c-1.479,0.381-2.529,1.766-2.529,3.293v16.229c0,1.574,1.05,2.911,2.529,3.341c1.527,0.382,3.103-0.286,3.866-1.623
			c0.716-1.098,2.053-1.479,3.15-0.859c1.098,0.716,1.527,2.053,0.812,3.15c-1.861,3.198-5.441,4.678-9.021,3.723
			C836.461,246.416,834.026,243.267,834.026,239.592z"/>
		<path fill="#1B181C" d="M880.71,247.515c-1.288,0.334-2.481-0.382-2.815-1.575c-0.144-0.382-0.239-0.859-0.382-1.385
			c-0.239-0.906-0.621-2.147-1.003-3.627h-8.113c-0.43,1.479-0.764,2.721-1.003,3.627c-0.143,0.525-0.238,1.003-0.382,1.385
			c-0.334,1.193-1.527,1.909-2.815,1.575c-1.193-0.335-1.909-1.527-1.575-2.816l7.637-27.683c0.238-1.003,1.098-1.671,2.195-1.671
			s1.957,0.668,2.195,1.671l7.637,27.683C882.619,245.987,881.903,247.18,880.71,247.515z M872.453,226.275
			c-0.907,3.102-1.861,6.777-2.769,10.07h5.537C874.314,233.053,873.36,229.377,872.453,226.275z"/>
		<path fill="#1B181C" d="M898.995,242.073c1.527,0,2.769,1.241,2.769,2.769s-1.241,2.768-2.769,2.768s-2.769-1.24-2.769-2.768
			S897.468,242.073,898.995,242.073z"/>
		<path fill="#1B181C" d="M917.135,239.592v-16.229c0-3.627,2.435-6.825,5.918-7.732c3.58-0.954,7.16,0.525,9.021,3.723
			c0.716,1.098,0.286,2.435-0.812,3.15c-1.098,0.621-2.435,0.238-3.15-0.859c-0.764-1.336-2.339-2.004-3.866-1.574
			c-1.479,0.381-2.529,1.766-2.529,3.293v16.229c0,1.574,1.05,2.911,2.529,3.341c1.527,0.382,3.103-0.286,3.866-1.623
			c0.716-1.098,2.053-1.479,3.15-0.859c1.098,0.716,1.527,2.053,0.812,3.15c-1.861,3.198-5.441,4.678-9.021,3.723
			C919.569,246.416,917.135,243.267,917.135,239.592z"/>
		<path fill="#1B181C" d="M947.16,239.592v-16.229c0-4.439,3.58-8.019,8.019-8.019s8.019,3.579,8.019,8.019v16.229
			c0,4.438-3.58,8.018-8.019,8.018S947.16,244.03,947.16,239.592z M951.742,223.363v16.229c0,1.908,1.527,3.436,3.437,3.436
			s3.437-1.527,3.437-3.436v-16.229c0-1.909-1.527-3.437-3.437-3.437S951.742,221.454,951.742,223.363z"/>
		<path fill="#1B181C" d="M979.238,245.318v-27.683c0-1.098,0.669-2.005,1.767-2.243s2.147,0.286,2.577,1.289
			c0.621,1.384,1.289,2.768,1.957,4.152c1.098,2.434,2.529,5.298,3.627,7.637c1.099-2.339,2.482-5.203,3.58-7.637
			c0.621-1.385,1.289-2.769,1.957-4.152c0.525-1.003,1.479-1.527,2.577-1.289s1.813,1.146,1.813,2.243v27.683
			c0,1.289-1.002,2.291-2.291,2.291c-1.288,0-2.291-1.002-2.291-2.291v-17.421c-0.811,1.718-1.622,3.437-2.243,4.726
			c-0.334,0.764-0.716,1.479-1.05,2.195c-0.382,0.812-1.146,1.336-2.053,1.336c-1.002,0-1.67-0.43-2.1-1.336
			c-0.334-0.716-0.716-1.432-1.05-2.195c-0.621-1.289-1.433-3.008-2.196-4.726v17.421c0,1.289-1.002,2.291-2.291,2.291
			C980.241,247.609,979.238,246.607,979.238,245.318z"/>
	</g>
	<path fill="#1E1E1C" d="M1001.318,191.43c0,1.059-1.817,1.932-4.039,1.932H306.283c-2.222,0-4.039-0.873-4.039-1.932v-0.859
		c0-1.066,1.817-1.936,4.039-1.936h690.996c2.222,0,4.039,0.869,4.039,1.936V191.43z"/>
	<g>
		<path fill="#1B181C" d="M152.582,346.819c-4.015,0-7.432-1.299-9.875-3.757c-2.69-2.704-4.157-6.733-4.136-11.355
			c0.036-8.812,0.021-20.193,0.011-31.224c-0.011-6.336-0.018-12.562-0.011-18.121l56.669-22.018v34.683
			c-0.119,4.193,0.973,7.628,3.166,9.882c1.846,1.896,4.404,2.898,7.406,2.898c4.68,0,7.366-4.129,7.213-4.118
			c-4.373,0.189-5.496-4.004-5.518-9.692v-0.529c0.021-3.825,0.107-27.22,0.094-50.798v-2.583l-2.408,0.952
			c-19.51,7.734-37.241,14.568-43.066,16.815l-0.904,0.351c-4.15,1.603-7.832,2.411-10.945,2.411
			c-9.785,0-11.835-8.097-11.835-14.888c0,0-0.068-157.542-0.068-172.971c0-19.737,9.277-27.314,24.247-33.136L264.162,0
			c0.021,28.043,0.24,274.119,0.24,281.475c0,17.281-5.922,25.431-23.471,32.308l-13.731,5.374
			c-21.71,8.493-51.441,20.128-66.246,25.981l-1.649,0.651C156.926,346.476,154.679,346.819,152.582,346.819z M206.549,43.965
			c-6.611,0-11.223,5.759-11.223,14.004c0,0,0,149.228,0,149.811c-0.119,4.201,0.973,7.643,3.166,9.896
			c1.846,1.896,4.415,3.077,7.409,2.898c6.165-0.365,6.733-3.857,6.587-3.857c-3.757,0.039-5.138-4.329-5.188-10.097l0.014-0.683
			c0.004-0.025-0.067-147.831-0.067-147.831c0-7.755,1.57-9.336,2.522-10.261c1.055-1.008,2.923-1.804,2.923-1.804
			S210.686,43.965,206.549,43.965z"/>
		<path fill="#1B181C" d="M0,103.129l103.376-40.364c4.147-1.611,7.825-2.433,10.945-2.433c7.936,0,11.96,5.273,11.96,15.667v172.21
			c0,10.404-6.279,25.173-23.971,32.536L0,320.73V103.129z M51.753,106.514c4.365,0.623,5.32,3.996,5.363,9.77l0.061,148.526
			c0.622,11.234-5.975,11.95-5.975,11.95c2.962,2.053,5.052,2.189,6.672,2.189c6.616,0,11.231-5.761,11.231-14.018v-1.148
			c-0.007-71.084-0.007-147.339,0-148.645c0.115-4.232-0.98-7.662-3.173-9.916c-1.843-1.896-4.404-2.902-7.41-2.902
			C56.439,102.32,52.01,103.982,51.753,106.514z"/>
	</g>
</g>
</svg>
