<?xml version="1.0" encoding="utf-8"?>
<!-- Generator: Adobe Illustrator 16.0.0, SVG Export Plug-In . SVG Version: 6.00 Build 0)  -->
<!DOCTYPE svg PUBLIC "-//W3C//DTD SVG 1.1//EN" "http://www.w3.org/Graphics/SVG/1.1/DTD/svg11.dtd">
<svg version="1.1" id="Layer_1" xmlns="http://www.w3.org/2000/svg" xmlns:xlink="http://www.w3.org/1999/xlink" x="0px" y="0px"
	 width="438.281px" height="226.795px" viewBox="0 0 438.281 226.795" enable-background="new 0 0 438.281 226.795"
	 xml:space="preserve">
<g>
	<g>
		<g>
			<g>
				<g>
					<path d="M118.29,134.261c-0.175-0.205-0.349-0.41-0.521-0.617l0,0c-5.501,1.156-11.111,2.012-16.734,2.586l0,0
						c-3.448,3.01-6.565,6.697-9.337,11.191l0,0l-2.036-1.254c2.264-3.689,4.767-6.864,7.492-9.586l0,0
						c-4.598,0.363-9.189,0.541-13.717,0.543l0,0c-4.546-0.039-7.277-2.814-10.264-4.087l0,0h0.001l0.97-2.185
						c3.532,1.624,5.871,3.92,9.293,3.881l0,0c5.478,0.002,11.047-0.263,16.609-0.807l0,0c3.804-3.198,7.981-5.641,12.491-7.469l0,0
						c-0.971-1.533-1.886-3.109-2.743-4.725l0,0c-13.554-11.095-22.488-26.628-22.481-45.566l0,0
						c0.002-18.21,6.427-35.763,17.438-48.806l0,0c4.278-5.07,9.256-9.458,14.822-12.928l0,0C123.604,6.029,130.326-0.028,140.654,0
						l0,0c3.601-0.013,6.584,0.977,9.104,2.608l0,0c6.517-1.706,13.329-2.607,20.229-2.608l0,0c6.934,0.004,13.942,2.047,19.3,5.883
						l0,0c2.875,2.053,5.277,4.657,6.882,7.732l0,0c2.282,2.035,4.376,4.308,6.27,6.771l0,0c3.874,5.035,6.926,10.866,9.051,17.122
						l0,0c1.487,0.992,2.93,2.037,4.322,3.132l0,0c13,10.223,21.647,24.987,21.641,42.772l0,0
						c0.002,13.926-5.949,26.292-15.359,35.142l0,0c-4.335,4.078-9.405,7.418-14.97,9.833l0,0c-7.2,5.5-15.611,9.505-24.717,11.548
						l0,0c0,0.871,0,1.809,0,2.877l0,0c0.02,4.702-2.967,7.965-6.776,9.808l0,0c-3.827,1.882-8.584,2.608-12.887,2.614l0,0
						C144.628,155.237,129.16,146.985,118.29,134.261L118.29,134.261z M162.744,152.843c4.026,0.006,8.503-0.717,11.829-2.366l0,0
						c3.343-1.688,5.425-4.04,5.445-7.665l0,0c0-0.873,0-1.656,0-2.389l0,0c-3.731,0.688-7.57,1.047-11.479,1.047l0,0
						c-5.993-0.002-11.993-0.543-17.865-1.6l0,0c-9.055-0.656-17.868-3.459-25.249-8.051l0,0c-1.657,0.443-3.329,0.857-5.013,1.244
						l0,0C130.887,145.125,145.538,152.839,162.744,152.843L162.744,152.843z M169.746,139.069
						c3.497-0.069,6.929-0.436,10.272-1.077l0,0c0-0.235,0-0.47,0-0.704l0,0C176.634,138.036,173.197,138.63,169.746,139.069
						L169.746,139.069z M154.777,137.632c4.075,0,8.2-0.218,12.312-0.656l0,0c-1.443,0.098-2.893,0.148-4.345,0.148l0,0
						c-10.167-0.004-20.249-2.842-28.313-8.065l0,0c-1.751,0.609-3.525,1.181-5.322,1.718l0,0c6.86,3.078,14.255,5.342,21.873,6.723
						l0,0C152.243,137.587,153.509,137.632,154.777,137.632L154.777,137.632z M182.407,137.484
						c5.323-1.244,10.396-3.187,15.104-5.726l0,0c-4.801,2.04-9.88,3.695-15.104,4.974l0,0
						C182.407,136.984,182.407,137.233,182.407,137.484L182.407,137.484z M178.344,135.204c0.56-0.117,1.118-0.239,1.674-0.365l0,0
						c0-0.025,0-0.051,0-0.076l0,0C179.462,134.917,178.904,135.063,178.344,135.204L178.344,135.204z M162.744,134.733
						c5.056,0.002,10.079-0.627,14.91-1.821l0,0c-2.65-0.28-5.089-0.789-7.395-1.423l0,0c-7.961-1.32-15.705-3.656-22.649-7.02l0,0
						c-0.51-0.072-1.028-0.136-1.555-0.188l0,0c-2.825,1.361-5.752,2.607-8.761,3.741l0,0
						C144.661,132.354,153.675,134.737,162.744,134.733L162.744,134.733z M182.407,134.27c1.841-0.462,3.662-0.97,5.456-1.527l0,0
						c-0.616,0.022-1.236,0.034-1.856,0.035l0,0c-1.184,0.459-2.384,0.883-3.6,1.272l0,0
						C182.407,134.123,182.407,134.196,182.407,134.27L182.407,134.27z M104.629,133.415c3.85-0.484,7.683-1.105,11.462-1.867l0,0
						c-0.766-0.998-1.506-2.018-2.22-3.062l0,0C110.594,129.777,107.51,131.399,104.629,133.415L104.629,133.415z M118.694,130.999
						c1.243-0.273,2.477-0.562,3.705-0.868l0,0c-1.694-0.913-3.35-1.88-4.959-2.897l0,0c-0.419,0.131-0.837,0.266-1.25,0.406l0,0
						C116.991,128.788,117.827,129.91,118.694,130.999L118.694,130.999z M185.555,130.387c5.391-2.134,10.389-5.008,14.735-8.517
						l0,0c10.09-8.154,16.662-19.659,16.667-33.388l0,0c0.001-7.437-0.893-14.839-2.6-21.971l0,0
						c-1.809,10.708-7.321,20.048-15.096,27.067l0,0c-7.95,7.182-18.266,11.966-29.464,13.396l0,0
						c-5.273,5.958-11.858,10.947-19.288,15.015l0,0c-0.25,0.138-0.502,0.274-0.754,0.409l0,0c4.52,0.838,8.465,2.309,12.324,3.764
						l0,0c2.863,1.08,5.679,2.15,8.686,2.986l0,0C175.656,129.955,180.636,130.368,185.555,130.387L185.555,130.387z
						 M219.346,88.482c0.005,14.521-7.004,26.741-17.556,35.246l0,0c-2.961,2.389-6.201,4.491-9.648,6.28l0,0
						c1.987-0.243,3.944-0.602,5.859-1.068l0,0c2.948-1.316,5.772-2.783,8.439-4.401l0,0c2.177-1.323,4.249-2.745,6.197-4.264l0,0
						c10.272-10.67,16.63-25.023,16.632-40.848l0,0c0-1.389-0.057-2.763-0.167-4.122l0,0c-2.444-6.794-7.506-12.061-14.105-16.008
						l0,0c-0.002,0.166-0.004,0.331-0.008,0.496l0,0C217.838,68.958,219.345,78.688,219.346,88.482L219.346,88.482z
						 M125.842,129.228c2.08-0.574,4.134-1.195,6.154-1.865l0,0c-0.055-0.041-0.11-0.082-0.166-0.125l0,0
						c-1.007-0.76-1.974-1.562-2.897-2.406l0,0c-2.529,0.314-4.975,0.734-7.339,1.281l0,0c0.404,0.338,0.815,0.67,1.233,0.994l0,0
						c0.918,0.713,1.87,1.393,2.852,2.039l0,0C125.733,129.173,125.787,129.2,125.842,129.228L125.842,129.228z M133.271,125.333
						c0.486,0.369,0.983,0.727,1.49,1.076l0,0c2.014-0.723,3.989-1.494,5.922-2.316l0,0c-2.916,0.035-5.746,0.16-8.485,0.396l0,0
						C132.55,124.776,132.908,125.058,133.271,125.333L133.271,125.333z M114.818,125.593c0.029-0.01,0.056-0.02,0.084-0.029l0,0
						c-0.062-0.043-0.124-0.085-0.186-0.128l0,0C114.75,125.487,114.785,125.541,114.818,125.593L114.818,125.593z M108.531,99.348
						c0.006,9.958,4.209,18.396,10.909,24.835l0,0c2.374-0.619,4.821-1.107,7.339-1.48l0,0c-4.953-5.309-8.258-11.975-8.924-19.702
						l0,0c-3.568-2.037-6.711-4.71-9.208-7.882l0,0C108.57,96.522,108.531,97.932,108.531,99.348L108.531,99.348z M114.291,122.199
						c0.061,0.045,0.121,0.089,0.181,0.134l0,0c-5.167-6.299-8.335-14.093-8.33-22.985l0,0c0-2.477,0.116-4.938,0.341-7.375l0,0
						c-1.306-2.193-2.326-4.567-3.004-7.087l0,0c-0.012,0.473-0.018,0.948-0.018,1.425l0,0c-0.001,12.069,2.938,23.756,8.215,33.873
						l0,0C112.529,120.872,113.401,121.544,114.291,122.199L114.291,122.199z M129.752,122.316
						c3.962-0.442,8.087-0.629,12.351-0.622l0,0c0.122,0,0.244,0.001,0.364,0.002l0,0c-0.429-0.257-0.854-0.518-1.275-0.784l0,0
						c-6.133-3.867-11.356-8.732-15.095-14.567l0,0c-1.967-0.509-3.872-1.191-5.689-2.031l0,0
						C121.381,111.435,124.781,117.493,129.752,122.316L129.752,122.316z M142.468,118.892c1.352,0.856,2.752,1.664,4.197,2.425l0,0
						c0.91-0.461,1.809-0.935,2.693-1.421l0,0c6.414-3.534,12.129-7.708,16.867-12.581l0,0c-1.153,0.072-2.314,0.109-3.48,0.109l0,0
						c-10.864,0-17.382,0-28.247,0l0,0c-1.702-0.003-3.385-0.135-5.036-0.388l0,0C132.851,111.664,137.294,115.608,142.468,118.892
						L142.468,118.892z M233.107,84.861c0.012,14.598-6.334,26.263-16.193,34.98l0,0c1.23-0.955,2.413-1.965,3.542-3.027l0,0
						c8.97-8.444,14.605-20.166,14.607-33.402l0,0c-0.005-12.028-4.112-22.573-10.96-31.212l0,0
						c4.037,6.728,6.641,14.384,7.355,22.603l0,0C232.529,77.875,233.112,81.228,233.107,84.861L233.107,84.861z M106.575,28.903
						C95.948,41.485,89.698,58.521,89.7,76.167l0,0c0.007,16.153,6.726,29.657,17.438,40.007l0,0
						c-3.926-9.2-6.065-19.392-6.066-29.865l0,0c0-2.698,0.181-5.344,0.533-7.929l0,0c-2.193-4.422-3.435-9.401-3.431-14.89l0,0
						c-0.003-17.258,7.438-32.167,19.075-43.158l0,0c0.209-0.648,0.429-1.289,0.66-1.919l0,0
						C113.735,21.388,109.939,24.922,106.575,28.903L106.575,28.903z M134.498,105.035c10.864,0,17.382,0,28.247,0l0,0
						c1.974,0,3.929-0.109,5.86-0.323l0,0c3.407-3.971,6.197-8.37,8.239-13.222l0,0c-6.984,7.09-16.35,11.592-27.136,11.588l0,0
						c-8.571-0.003-17.263-1.633-25.021-4.8l0,0c0.795,2.099,1.776,4.095,2.924,5.987l0,0
						C129.839,104.77,132.149,105.035,134.498,105.035L134.498,105.035z M172.095,104.208c9.709-1.733,18.604-6.111,25.564-12.402
						l0,0c8.834-7.987,14.548-19.013,14.932-31.673l0,0c-0.276-0.876-0.566-1.748-0.867-2.612l0,0
						c-1.373-0.678-2.796-1.302-4.259-1.874l0,0c0.643,0.973,1.03,2.142,1.018,3.498l0,0c0.022,5.366-2.994,8.883-6.697,11.518l0,0
						c-0.673,0.484-1.372,0.948-2.086,1.4l0,0c-0.58,5.037-3.825,8.661-8.024,11.027l0,0c-2.96,1.688-6.421,2.854-9.965,3.669l0,0
						c-0.07,0.077-0.141,0.153-0.211,0.229l0,0c-0.249,0.27-0.502,0.535-0.763,0.794l0,0
						C178.842,93.867,175.889,99.333,172.095,104.208L172.095,104.208z M124.35,103.339c-1.059-2.022-1.948-4.148-2.646-6.377l0,0
						c-0.505-0.24-1.005-0.488-1.5-0.742l0,0c-0.056,1.287-0.084,2.572-0.083,3.852l0,0c0,0.495,0.012,0.987,0.035,1.473l0,0
						C121.498,102.241,122.901,102.842,124.35,103.339L124.35,103.339z M149.707,100.688c8.908-0.004,16.749-3.252,22.998-8.606l0,0
						c-0.632,0.088-1.296,0.134-1.994,0.13l0,0c-3.984,0-6.518,0-10.502,0l0,0h-1.195v-1.194c0-6.158,0-9.417,0-15.574l0,0
						c0.001-1.026,0.051-2.055,0.15-3.078l0,0c-4.307,1.133-8.815,1.737-13.44,1.737l0,0c-6.907-0.004-14.1-1.59-19.986-4.792l0,0
						c-1.385,3.512-2.516,7.205-3.389,10.995l0,0c-0.038,1.528-0.056,3.049-0.056,4.555l0,0c0.003,3.692,0.488,7.153,1.396,10.389
						l0,0C131.589,98.817,140.727,100.691,149.707,100.688L149.707,100.688z M227.927,100.365c0.384-1.002,0.731-2.026,1.04-3.071
						l0,0C228.646,98.33,228.3,99.353,227.927,100.365L227.927,100.365z M113.797,97.149c1.218,1.102,2.535,2.105,3.935,3l0,0
						c0-0.025,0-0.051,0-0.076l0,0c0-1.701,0.048-3.409,0.145-5.12l0,0c-1.115-0.645-2.199-1.326-3.249-2.044l0,0
						c-1.909-1.306-3.702-2.739-5.35-4.295l0,0c-0.13,0.93-0.243,1.862-0.339,2.799l0,0
						C110.281,93.525,111.92,95.451,113.797,97.149L113.797,97.149z M120.878,93.88c-0.144-0.641-0.272-1.289-0.385-1.946l0,0
						c-0.051,0.555-0.097,1.112-0.138,1.668l0,0C120.529,93.696,120.703,93.788,120.878,93.88L120.878,93.88z M115.98,90.938
						c0.679,0.466,1.374,0.916,2.084,1.35l0,0c0.353-4.137,0.986-8.265,1.904-12.295l0,0c0.122-4.604,0.417-9.292,0.918-13.965l0,0
						c-1.173-0.993-2.245-2.082-3.187-3.264l0,0c-3.791,7.057-6.51,14.814-7.96,22.944l0,0
						C111.599,87.621,113.694,89.365,115.98,90.938L115.98,90.938z M170.711,89.823c2.585-0.015,4.487-0.715,6.168-1.892l0,0
						c0.086-0.1,0.173-0.201,0.259-0.301l0,0c-0.523,0.081-1.044,0.156-1.561,0.225l0,0l-1.161,0.154l-1.698-11.032l0.257-0.386
						c2.842-4.252,4.914-9.051,7.24-13.344l0,0c-0.077-0.572-0.161-1.137-0.253-1.694l0,0c-5.319,4.487-11.536,7.952-18.314,10.094
						l0,0c-0.162,1.26-0.245,2.531-0.245,3.797l0,0c0,5.747,0,8.969,0,14.379l0,0C164.733,89.823,167.14,89.823,170.711,89.823
						L170.711,89.823z M106.99,87.733c0.061-0.417,0.125-0.835,0.193-1.251l0,0c-0.389-0.427-0.77-0.864-1.138-1.308l0,0
						C106.315,86.047,106.631,86.901,106.99,87.733L106.99,87.733z M176.421,85.323c0.884-0.131,1.772-0.281,2.658-0.451l0,0
						c1.083-4.172,1.66-8.637,1.664-13.412l0,0c-0.001-1.315-0.038-2.591-0.11-3.83l0,0c-1.617,3.207-3.296,6.646-5.412,9.896l0,0
						L176.421,85.323L176.421,85.323z M189.897,78.21c-2.112,1.579-3.796,3.453-5.399,5.328l0,0c2.169-0.672,4.211-1.502,5.99-2.522
						l0,0c3.172-1.84,5.472-4.14,6.425-7.269l0,0C194.506,75.163,192.056,76.56,189.897,78.21L189.897,78.21z M107.733,83.466
						c1.643-8.122,4.518-15.855,8.439-22.891l0,0c-1.036-1.712-1.818-3.585-2.286-5.614l0,0c-1.338,1.456-2.553,3.015-3.625,4.664
						l0,0c-1.98,3.62-3.572,7.472-4.715,11.519l0,0c-0.416,2.085-0.635,4.247-0.636,6.473l0,0c0,0.663,0.025,1.319,0.075,1.967l0,0
						C105.802,80.939,106.722,82.234,107.733,83.466L107.733,83.466z M183.132,71.46c0.002,2.788-0.186,5.477-0.551,8.071l0,0
						c3.469-6.638,5.406-14.312,5.405-22.196l0,0c0-0.218-0.005-0.434-0.015-0.647l0,0c-1.478,1.263-2.75,2.898-3.982,4.816l0,0
						c-0.446,0.703-0.878,1.441-1.305,2.207l0,0C182.979,66.153,183.133,68.724,183.132,71.46L183.132,71.46z M190.375,57.334
						c-0.001,7.543-1.683,14.896-4.747,21.428l0,0c0.859-0.849,1.792-1.679,2.828-2.458l0,0c2.882-2.19,6.085-3.896,8.941-5.626l0,0
						c0.003-0.101,0.004-0.202,0.005-0.305l0,0c-0.017-6.614-2.365-11.684-6.34-15.61l0,0c-0.28,0.117-0.552,0.245-0.817,0.382l0,0
						C190.333,55.854,190.377,56.583,190.375,57.334L190.375,57.334z M100.564,63.491c0.003,3.801,0.634,7.328,1.795,10.575l0,0
						c0.256-1.192,0.548-2.371,0.876-3.533l0,0c0.894-4.377,2.597-8.432,4.936-12.065l0,0c1.525-2.788,3.272-5.444,5.214-7.95l0,0
						c0-0.022,0-0.043,0-0.065l0,0c0.003-8.207,0.607-17.241,2.55-25.399l0,0C106.436,35.29,100.568,48.443,100.564,63.491
						L100.564,63.491z M145.724,71.714c4.76,0,9.391-0.67,13.792-1.921l0,0c0.82-4.626,2.629-9.047,5.299-12.67l0,0
						c2.86-3.889,6.777-6.864,11.497-8.04l0,0c-0.43-1.019-0.888-2.028-1.37-3.033l0,0c-7.66-2.294-16.455-3.355-24.9-3.693l0,0
						c-7.995,3.079-14.362,9.057-19.194,16.744l0,0c-1.568,2.5-2.964,5.179-4.189,7.992l0,0
						C132.147,70.142,139.095,71.718,145.724,71.714L145.724,71.714z M122.904,70.04c0.243-0.66,0.495-1.315,0.755-1.964l0,0
						c-0.183-0.118-0.364-0.238-0.543-0.36l0,0C123.039,68.49,122.969,69.266,122.904,70.04L122.904,70.04z M199.768,69.161
						c0.21-0.144,0.417-0.29,0.619-0.436l0,0c3.449-2.525,5.683-5.166,5.705-9.58l0,0c-0.027-1.994-1.079-3.143-3.014-4.075l0,0
						c-1.918-0.887-4.597-1.255-7.017-1.25l0,0c-0.858,0.005-1.66,0.073-2.413,0.201l0,0
						C197.248,57.975,199.52,62.963,199.768,69.161L199.768,69.161z M166.738,58.541c-2.194,2.967-3.777,6.6-4.625,10.437l0,0
						c6.447-2.214,12.335-5.693,17.328-10.137l0,0c-0.575-2.623-1.327-5.104-2.234-7.515l0,0
						C172.954,52.29,169.424,54.919,166.738,58.541L166.738,58.541z M216.088,57.166c4.767,2.802,8.866,6.369,11.847,10.706l0,0
						c-2.343-9.958-7.644-18.771-14.906-25.651l0,0c-0.059-0.056-0.119-0.112-0.178-0.167l0,0c1.222,4.692,1.938,9.562,2.108,14.468
						l0,0C215.34,56.731,215.717,56.946,216.088,57.166L216.088,57.166z M124.603,65.833c1.237-2.802,2.643-5.482,4.219-8.001l0,0
						c4.092-6.554,9.39-12.019,15.859-15.599l0,0c-0.377-0.002-0.755-0.003-1.129-0.003l0,0c-3.841,0-7.608,0.537-11.192,1.543l0,0
						c-1.74,1.599-3.402,3.293-4.98,5.073l0,0c-0.543,0.612-1.076,1.235-1.599,1.868l0,0c-1.034,4.648-1.814,9.44-2.372,14.263l0,0
						C123.795,65.271,124.193,65.556,124.603,65.833L124.603,65.833z M121.227,63.103c0.34-2.699,0.75-5.39,1.237-8.049l0,0
						c-1.239,1.754-2.403,3.567-3.492,5.436l0,0C119.635,61.416,120.391,62.287,121.227,63.103L121.227,63.103z M182.114,59.996
						c0.21-0.331,0.425-0.657,0.646-0.978l0,0c-0.232,0.227-0.467,0.45-0.704,0.672l0,0
						C182.076,59.793,182.095,59.893,182.114,59.996L182.114,59.996z M117.567,58.174c1.812-2.992,3.819-5.847,6.004-8.535l0,0
						c0.198-0.871,0.405-1.736,0.621-2.597l0,0c-2.771,1.473-5.342,3.254-7.642,5.299l0,0c-0.206,0.184-0.41,0.369-0.611,0.556l0,0
						C116.198,54.803,116.755,56.56,117.567,58.174L117.567,58.174z M181.454,56.95c1.819-1.807,3.499-3.748,5.021-5.808l0,0
						c-0.014-0.008-0.028-0.018-0.041-0.026l0,0c-1.866-0.129-3.733-0.193-5.583-0.193l0,0c-0.416,0-0.826,0.016-1.23,0.045l0,0
						C180.33,52.9,180.944,54.885,181.454,56.95L181.454,56.95z M186.915,54.476c0.226-0.177,0.457-0.347,0.692-0.51l0,0
						c-0.021-0.092-0.043-0.184-0.067-0.275l0,0C187.334,53.954,187.125,54.216,186.915,54.476L186.915,54.476z M210.549,54.34
						c-2.99-7.654-6.97-14.778-11.821-21.02l0,0c-0.474-0.204-0.948-0.401-1.427-0.595l0,0c-1.221,5.898-3.479,11.422-6.571,16.398
						l0,0C197.644,49.953,204.458,51.667,210.549,54.34L210.549,54.34z M212.269,52.201c-0.463-4.452-1.391-8.835-2.745-13.027l0,0
						c-0.236-0.188-0.473-0.374-0.712-0.559l0,0c-1.794-1.136-3.654-2.195-5.568-3.175l0,0
						C206.812,40.6,209.837,46.238,212.269,52.201L212.269,52.201z M191.63,52.031c0.315-0.093,0.637-0.175,0.966-0.248l0,0
						c-0.496-0.073-0.992-0.142-1.489-0.206l0,0C191.284,51.727,191.458,51.878,191.63,52.031L191.63,52.031z M181.333,42.322
						c2.769,1.656,5.129,3.838,6.742,6.521l0,0c3.341-5.101,5.747-10.838,6.968-16.99l0,0c-7.446-2.74-15.458-4.375-23.593-4.75l0,0
						c-1.528,0.079-3.041,0.213-4.533,0.401l0,0c2.578,4.108,4.993,7.927,7.132,11.709l0,0
						C176.653,39.962,179.125,40.993,181.333,42.322L181.333,42.322z M178.718,48.65c0.696-0.078,1.408-0.118,2.133-0.117l0,0
						c0.264,0,0.528,0.001,0.792,0.004l0,0c-0.625-0.285-1.265-0.56-1.917-0.825l0,0c-0.553-0.222-1.114-0.436-1.685-0.642l0,0
						C178.275,47.596,178.5,48.12,178.718,48.65L178.718,48.65z M115.799,47.592c1.687-1.922,3.494-3.743,5.408-5.455l0,0
						c1.859-1.663,3.819-3.224,5.868-4.676l0,0c0.886-2.484,1.865-4.893,2.944-7.208l0,0c4.338-9.353,10.411-17.199,18.525-22.056
						l0,0c-3.822,0.08-7.518,0.546-11.069,1.36l0,0c-5.728,2.667-11.042,6.026-15.745,9.982l0,0
						c-0.818,0.688-1.616,1.393-2.396,2.116l0,0C116.888,29.545,115.958,38.896,115.799,47.592L115.799,47.592z M122.8,43.918
						c-1.122,1.005-2.205,2.046-3.247,3.125l0,0c1.729-1.146,3.553-2.169,5.452-3.06l0,0c0.241-0.858,0.492-1.709,0.752-2.553l0,0
						C124.745,42.231,123.758,43.06,122.8,43.918L122.8,43.918z M180.617,45.495c0.833,0.331,1.651,0.681,2.451,1.052l0,0
						c-0.893-0.794-1.889-1.519-2.97-2.179l0,0c-1.342-0.813-2.816-1.51-4.378-2.092l0,0c0.313,0.598,0.62,1.198,0.917,1.798l0,0
						C177.998,44.506,179.327,44.979,180.617,45.495L180.617,45.495z M127.009,45.705c0.012-0.013,0.025-0.027,0.038-0.04l0,0
						c-0.01,0.004-0.02,0.008-0.03,0.013l0,0C127.014,45.687,127.012,45.696,127.009,45.705L127.009,45.705z M173.482,43.157
						c-0.335-0.634-0.678-1.266-1.031-1.902l0,0c-3.121-0.802-6.452-1.2-9.707-1.198l0,0c-1.846,0.002-3.629,0.132-5.351,0.383l0,0
						C162.875,40.941,168.358,41.798,173.482,43.157L173.482,43.157z M127.845,42.773c1.076-0.414,2.175-0.788,3.288-1.118l0,0
						c5.967-5.399,12.831-9.742,20.386-12.69l0,0c-8.153,1.978-15.781,5.407-22.447,10.014l0,0
						C128.64,40.225,128.231,41.49,127.845,42.773L127.845,42.773z M136.243,40.467c2.392-0.408,4.835-0.621,7.309-0.625l0,0
						c1.995,0,4.035,0.035,6.099,0.11l0,0c3.993-1.479,8.36-2.288,13.094-2.284l0,0c2.695,0.002,5.436,0.254,8.098,0.774l0,0
						c-1.971-3.356-4.163-6.812-6.509-10.558l0,0C153.832,29.663,144.324,34.102,136.243,40.467L136.243,40.467z M132.185,31.263
						c-0.598,1.281-1.166,2.593-1.703,3.936l0,0c9.389-5.835,20.37-9.495,31.95-10.367l0,0c-0.119-0.192-0.237-0.383-0.356-0.577
						l0,0c-3.115-5.325-5.648-10.907-8.834-15.042l0,0c-0.152-0.195-0.304-0.388-0.458-0.576l0,0
						C143.641,12.921,136.991,21.027,132.185,31.263L132.185,31.263z M208.046,35.09c-1.938-4.814-4.459-9.299-7.5-13.247l0,0
						c-0.818-1.061-1.673-2.083-2.563-3.063l0,0c0.236,1.211,0.36,2.474,0.358,3.783l0,0c-0.001,2.053-0.126,4.08-0.368,6.068l0,0
						c0.383,0.442,0.762,0.889,1.135,1.341l0,0C202.25,31.419,205.24,33.134,208.046,35.09L208.046,35.09z M174.695,24.629
						c6.776,0,13.336,1.172,19.445,3.329l0,0c-10.118-10.736-23.176-17.975-38.467-19.482l0,0c3.157,4.343,5.583,9.665,8.451,14.547
						l0,0c0.344,0.558,0.686,1.11,1.026,1.656l0,0c0.885-0.033,1.773-0.049,2.664-0.05l0,0c1.206,0,2.412,0.027,3.614,0.081l0,0
						c1.077-0.054,2.163-0.081,3.256-0.081l0,0C174.687,24.629,174.691,24.629,174.695,24.629L174.695,24.629z M195.812,26.243
						c0.093-1.214,0.141-2.441,0.141-3.679l0,0c-0.004-2.738-0.611-5.226-1.699-7.451l0,0c-6.971-6.104-15.662-9.822-25.715-9.827
						l0,0c-3.46,0.005-6.678,0.411-9.67,1.174l0,0C173.473,8.618,186.021,15.882,195.812,26.243L195.812,26.243z M121.041,17.009
						c1.13-0.92,2.291-1.806,3.482-2.659l0,0c-1.041,0.544-2.062,1.121-3.066,1.729l0,0
						C121.316,16.385,121.177,16.696,121.041,17.009L121.041,17.009z M123.575,12.151c4.11-2.133,8.497-3.783,13.12-4.866l0,0
						c3.152-1.456,6.426-2.708,9.788-3.744l0,0c-1.691-0.735-3.601-1.142-5.828-1.151l0,0
						C132.743,2.414,127.355,6.159,123.575,12.151L123.575,12.151z M187.591,7.611c-4.838-3.363-11.273-5.226-17.604-5.221l0,0
						c-6.061-0.001-12.052,0.717-17.824,2.082l0,0c0.443,0.404,0.87,0.828,1.282,1.27l0,0c4.485-1.84,9.504-2.851,15.094-2.844l0,0
						c0.007,0,0.013,0,0.02,0l0,0C175.555,2.897,181.946,4.613,187.591,7.611L187.591,7.611z M147.094,5.853
						c0.865-0.039,1.736-0.058,2.613-0.058l0,0c0.114,0,0.227,0,0.341,0.001l0,0c-0.242-0.206-0.488-0.404-0.739-0.593l0,0
						C148.567,5.409,147.828,5.626,147.094,5.853L147.094,5.853z"/>
				</g>
				<g>
					<path fill="#00A7CE" d="M193.54,70.824c-1.304-2.448-3.48-4.716-6.53-6.805c-3.049-2.089-6.579-3.903-10.587-5.442
						c-14.763-5.669-25.416-3.78-31.959,5.669l17.186,8.554c1.929-3.476,5.132-4.355,9.607-2.636
						c1.914,0.735,3.226,1.654,3.938,2.758c0.711,1.104,0.644,2.758-0.203,4.963l-0.436,1.136
						c-12.411-4.019-21.627-5.324-27.648-3.916s-10.038,4.734-12.05,9.979c-1.488,3.878-1.348,7.876,0.422,11.995
						s5.591,7.305,11.465,9.561c7.146,2.744,13.5,2.137,19.062-1.821c-0.966,2.517-1.623,4.929-1.971,7.234l18.541,7.119
						c0.025-3.061,0.764-6.484,2.217-10.271l7.628-19.876c2.067-5.386,3.129-9.153,3.188-11.303
						C195.467,75.571,194.844,73.272,193.54,70.824z M170.139,90.531c-1.621,4.225-3.399,6.673-5.335,7.347
						s-3.944,0.611-6.023-0.188c-3.281-1.26-4.348-3.385-3.201-6.374c1.696-4.42,6.855-5.478,15.477-3.173L170.139,90.531z"/>
				</g>
			</g>
			<g>
				<path d="M77.849,212.148c-4.718,1.414-9.327,2.121-13.827,2.12c-10.162,0-18.219-3.564-24.171-10.691
					c-5.953-7.128-8.929-15.687-8.93-25.677l65.108,0.004c-0.002-16.094-2.833-27.994-8.496-35.701
					c-7.259-9.873-20.034-14.81-38.325-14.812c-15.243,0-27.436,4.972-36.581,14.918C4.207,151.45-0.001,162.809,0,176.383
					c0.001,14.921,4.829,27.054,14.483,36.396c9.655,9.344,23.555,14.016,41.701,14.017c9.145,0.001,16.839-1.255,23.081-3.765
					c7.548-3.039,11.831-7.861,12.846-14.471l-1.525-2.774C86.813,208.613,82.567,210.735,77.849,212.148z M35.491,147.667
					c3.047-7.994,7.91-11.992,14.588-11.992c6.823,0.001,11.542,4.338,14.155,13.012c1.597,5.149,2.396,11.857,2.397,20.125
					l-34.405-0.003C32.226,160.542,33.313,153.495,35.491,147.667z"/>
			</g>
		</g>
	</g>
	<g>
		<g>
			<polygon fill-rule="evenodd" clip-rule="evenodd" points="129.377,201.804 129.377,203.802 123.781,203.802 123.781,208.773 
				129.327,208.773 129.327,210.497 123.781,210.497 123.781,216.593 129.377,216.593 129.377,218.441 119.958,218.441 
				119.958,201.804 			"/>
			<path fill-rule="evenodd" clip-rule="evenodd" d="M140.509,202.253c0.117,0.033,0.221,0.088,0.312,0.162
				c0.092,0.075,0.188,0.18,0.288,0.312l-0.725,2.299c-0.15,0.05-0.3,0.05-0.45,0c-0.633-1.35-1.607-2.023-2.923-2.023
				c-0.516,0-1.008,0.116-1.474,0.35c-0.366,0.215-0.637,0.473-0.812,0.772s-0.262,0.632-0.262,0.997
				c0,0.433,0.125,0.849,0.375,1.248c0.25,0.398,0.6,0.73,1.049,0.997l4.047,2.194c0.633,0.467,1.112,1.031,1.437,1.697
				c0.325,0.664,0.487,1.363,0.487,2.095c0,1.181-0.371,2.274-1.112,3.28s-1.599,1.617-2.574,1.833
				c-0.974,0.216-1.819,0.324-2.536,0.324s-1.408-0.075-2.074-0.225c-0.667-0.149-1.341-0.392-2.024-0.725l0.625-3.048h0.55
				c0.167,0.759,0.575,1.377,1.224,1.855c0.65,0.479,1.358,0.718,2.124,0.718c0.583,0,1.116-0.138,1.599-0.411
				c0.483-0.275,0.866-0.695,1.149-1.26c0.1-0.299,0.15-0.582,0.15-0.849c0-0.748-0.391-1.446-1.174-2.095
				c-1.349-0.814-2.648-1.529-3.897-2.146c-1.499-1.114-2.249-2.511-2.249-4.19c0-0.914,0.221-1.729,0.662-2.444
				c0.441-0.715,0.962-1.247,1.562-1.597c0.6-0.349,1.274-0.606,2.024-0.772c0.399-0.05,0.799-0.075,1.199-0.075
				C138.269,201.528,139.409,201.771,140.509,202.253z"/>
			<path fill-rule="evenodd" clip-rule="evenodd" d="M158.436,202.628l-0.575,2.498h-0.3c-0.5-0.717-1.112-1.258-1.836-1.624
				s-1.487-0.55-2.286-0.55c-0.866,0-1.699,0.213-2.499,0.637c-0.799,0.424-1.458,1.018-1.974,1.783
				c-0.417,0.764-0.737,1.574-0.962,2.432c-0.225,0.855-0.337,1.725-0.337,2.605c0,1.014,0.158,1.979,0.475,2.893
				s0.774,1.684,1.375,2.307c0.6,0.624,1.245,1.068,1.936,1.335c0.691,0.266,1.42,0.399,2.186,0.399c0.716,0,1.391-0.107,2.024-0.32
				c0.633-0.214,1.216-0.559,1.749-1.035l0.5-0.369c0.1-0.033,0.242-0.017,0.425,0.05l-0.575,2.082
				c-0.766,0.363-1.565,0.628-2.398,0.794c-0.833,0.164-1.699,0.247-2.599,0.247c-0.45,0-0.899-0.024-1.349-0.075l-2.398-0.549
				c-1.232-0.449-2.249-1.064-3.048-1.846c-0.799-0.781-1.382-1.721-1.749-2.818c-0.367-1.098-0.55-2.195-0.55-3.293
				c0-1.23,0.221-2.395,0.662-3.492s1.112-2.055,2.011-2.869c0.949-0.766,2.011-1.352,3.186-1.759s2.386-0.611,3.635-0.611
				c0.417,0,0.887,0.029,1.412,0.087c0.525,0.059,1.137,0.184,1.836,0.375S157.787,202.361,158.436,202.628z"/>
			<path fill-rule="evenodd" clip-rule="evenodd" d="M165.584,201.753v11.168c0,1.132,0.358,2.09,1.074,2.873
				c0.716,0.782,1.387,1.203,2.012,1.261c0.625,0.059,1.037,0.087,1.237,0.087c0.949,0,1.794-0.266,2.536-0.799
				s1.27-1.249,1.586-2.148l0.2-0.924v-11.518h2.199v10.693c0,1.232-0.383,2.397-1.149,3.496c-0.766,1.1-1.732,1.883-2.898,2.35
				c-1.049,0.332-2.157,0.499-3.323,0.499c-1.699,0-3.215-0.374-4.547-1.124s-2.19-1.873-2.573-3.373v-12.541H165.584z"/>
			<polygon fill-rule="evenodd" clip-rule="evenodd" points="190.252,201.804 190.252,203.802 184.655,203.802 184.655,208.773 
				190.202,208.773 190.202,210.497 184.655,210.497 184.655,216.593 190.252,216.593 190.252,218.441 180.833,218.441 
				180.833,201.804 			"/>
			<polygon fill-rule="evenodd" clip-rule="evenodd" points="197.336,201.753 197.336,216.493 202.907,216.493 202.907,218.441 
				193.438,218.441 193.438,201.753 			"/>
			<polygon fill-rule="evenodd" clip-rule="evenodd" points="259.493,201.804 259.493,203.802 253.896,203.802 253.896,208.773 
				259.443,208.773 259.443,210.497 253.896,210.497 253.896,216.593 259.493,216.593 259.493,218.441 250.074,218.441 
				250.074,201.804 			"/>
			<polygon fill-rule="evenodd" clip-rule="evenodd" points="313.966,201.804 313.966,203.802 309.743,203.802 309.743,218.441 
				305.771,218.441 305.771,203.802 301.398,203.802 301.398,202.003 301.398,201.804 			"/>
			<polygon fill-rule="evenodd" clip-rule="evenodd" points="325.965,201.804 325.965,203.802 320.368,203.802 320.368,208.773 
				325.915,208.773 325.915,210.497 320.368,210.497 320.368,216.593 325.965,216.593 325.965,218.441 316.545,218.441 
				316.545,201.804 			"/>
			<polygon fill-rule="evenodd" clip-rule="evenodd" points="366.183,201.804 366.183,203.802 360.586,203.802 360.586,208.773 
				366.133,208.773 366.133,210.497 360.586,210.497 360.586,216.593 366.183,216.593 366.183,218.441 356.763,218.441 
				356.763,201.804 			"/>
			<path fill-rule="evenodd" clip-rule="evenodd" d="M381.982,201.804v14.939c-0.149,1.481-0.732,2.768-1.749,3.859
				c-1.016,1.09-2.272,1.636-3.771,1.636l-0.375-0.974c0.517-0.1,0.937-0.325,1.262-0.675c0.324-0.35,0.554-0.791,0.687-1.324
				v-17.462H381.982z"/>
			<polygon fill-rule="evenodd" clip-rule="evenodd" points="395.264,201.804 395.264,203.802 389.667,203.802 389.667,208.773 
				395.214,208.773 395.214,210.497 389.667,210.497 389.667,216.593 395.264,216.593 395.264,218.441 385.845,218.441 
				385.845,201.804 			"/>
			<polygon fill-rule="evenodd" clip-rule="evenodd" points="422.902,201.804 422.902,203.802 417.306,203.802 417.306,208.773 
				422.853,208.773 422.853,210.497 417.306,210.497 417.306,216.593 422.902,216.593 422.902,218.441 413.483,218.441 
				413.483,201.804 			"/>
			<path fill-rule="evenodd" clip-rule="evenodd" d="M438.281,201.753c0,0.417-0.092,0.809-0.274,1.175l-8.17,13.715h8.444v1.799
				H424.59v-0.351l8.67-14.439l-7.646-0.049v-1.85H438.281z"/>
		</g>
		<g>
			<path fill-rule="evenodd" clip-rule="evenodd" d="M141.449,174.908h2.146v2.38c0.64-0.938,1.314-1.636,2.024-2.093
				c0.709-0.458,1.449-0.687,2.219-0.687c0.58,0,1.2,0.186,1.859,0.555l-1.093,1.754c-0.439-0.189-0.81-0.285-1.109-0.285
				c-0.7,0-1.375,0.287-2.025,0.861c-0.65,0.572-1.145,1.463-1.485,2.668c-0.26,0.928-0.39,2.803-0.39,5.623v5.504h-2.146V174.908z"
				/>
			<polygon fill-rule="evenodd" clip-rule="evenodd" points="152.334,168.837 154.419,168.837 154.419,174.908 157.731,174.908 
				157.731,176.717 154.419,176.717 154.419,191.188 152.334,191.188 152.334,176.717 149.482,176.717 149.482,174.908 
				152.334,174.908 			"/>
			<g>
				<path d="M129.29,169.175l-10.395,22.014h2.455l3.417-7.236h9.543l3.438,7.236h2.365l-10.272-22.014H129.29z M125.78,181.806
					l3.784-8.014l3.771,8.014H125.78z"/>
				<path d="M171.974,188.087c-0.552,0.473-1.221,0.854-2.009,1.139c-0.788,0.287-1.598,0.43-2.431,0.43
					c-1.725,0-3.175-0.602-4.349-1.807c-1.173-1.205-1.78-2.748-1.821-4.632h14.718c-0.02-2.22-0.621-4.072-1.804-5.556
					c-1.664-2.102-3.888-3.152-6.673-3.152c-2.706,0-4.865,1.025-6.479,3.076c-1.273,1.611-1.909,3.447-1.909,5.508
					c0,2.189,0.751,4.152,2.253,5.889c1.502,1.737,3.585,2.605,6.249,2.605c1.202,0,2.278-0.182,3.229-0.543
					c0.951-0.363,1.808-0.891,2.569-1.586c0.761-0.693,1.432-1.607,2.013-2.738l-1.767-0.928
					C173.123,186.849,172.526,187.612,171.974,188.087z M163.489,178.043c1.156-1.027,2.537-1.54,4.145-1.54
					c0.975,0,1.904,0.203,2.789,0.613c0.884,0.408,1.595,0.946,2.133,1.614s0.947,1.561,1.229,2.677h-12.209
					C162.007,179.912,162.646,178.79,163.489,178.043z"/>
			</g>
			<path fill-rule="evenodd" clip-rule="evenodd" d="M187.209,176.674l-1.348,1.392c-1.121-1.083-2.217-1.625-3.289-1.625
				c-0.681,0-1.264,0.225-1.75,0.674c-0.485,0.447-0.728,0.971-0.728,1.568c0,0.529,0.2,1.031,0.599,1.51
				c0.4,0.488,1.238,1.062,2.517,1.719c1.557,0.807,2.616,1.584,3.175,2.332c0.549,0.758,0.824,1.611,0.824,2.558
				c0,1.337-0.47,2.468-1.41,3.396c-0.94,0.927-2.115,1.391-3.525,1.391c-0.94,0-1.837-0.205-2.693-0.613
				c-0.855-0.41-1.562-0.973-2.123-1.691l1.317-1.497c1.071,1.206,2.207,1.81,3.408,1.81c0.841,0,1.556-0.27,2.147-0.808
				c0.59-0.538,0.885-1.171,0.885-1.897c0-0.598-0.195-1.131-0.585-1.598c-0.39-0.459-1.271-1.037-2.641-1.734
				c-1.47-0.754-2.47-1.5-3-2.235s-0.795-1.575-0.795-2.52c0-1.232,0.423-2.257,1.27-3.071c0.847-0.814,1.916-1.223,3.208-1.223
				C184.174,174.509,185.687,175.231,187.209,176.674z"/>
			<rect x="214.432" y="168.622" fill-rule="evenodd" clip-rule="evenodd" width="2.085" height="22.566"/>
			<polygon fill-rule="evenodd" clip-rule="evenodd" points="229.065,167.274 232.278,167.274 227.87,171.872 225.809,171.872 			
				"/>
			<path fill-rule="evenodd" clip-rule="evenodd" d="M248.215,176.674l-1.349,1.392c-1.121-1.083-2.217-1.625-3.288-1.625
				c-0.681,0-1.264,0.225-1.75,0.674c-0.484,0.447-0.728,0.971-0.728,1.568c0,0.529,0.199,1.031,0.599,1.51
				c0.399,0.488,1.238,1.062,2.517,1.719c1.558,0.807,2.616,1.584,3.175,2.332c0.55,0.758,0.824,1.611,0.824,2.558
				c0,1.337-0.471,2.468-1.411,3.396c-0.939,0.927-2.114,1.391-3.525,1.391c-0.939,0-1.837-0.205-2.692-0.613
				c-0.855-0.41-1.562-0.973-2.123-1.691l1.318-1.497c1.071,1.206,2.206,1.81,3.408,1.81c0.84,0,1.556-0.27,2.146-0.808
				c0.59-0.538,0.885-1.171,0.885-1.897c0-0.598-0.194-1.131-0.584-1.598c-0.391-0.459-1.271-1.037-2.642-1.734
				c-1.471-0.754-2.471-1.5-3.001-2.235c-0.529-0.735-0.795-1.575-0.795-2.52c0-1.232,0.424-2.257,1.27-3.071
				c0.847-0.814,1.916-1.223,3.208-1.223C245.179,174.509,246.691,175.231,248.215,176.674z"/>
			<polygon fill-rule="evenodd" clip-rule="evenodd" points="252.795,168.837 254.879,168.837 254.879,174.908 258.191,174.908 
				258.191,176.717 254.879,176.717 254.879,191.188 252.795,191.188 252.795,176.717 249.943,176.717 249.943,174.908 
				252.795,174.908 			"/>
			<g>
				<path fill-rule="evenodd" clip-rule="evenodd" d="M261.204,168.224c0.477,0,0.883,0.17,1.22,0.51
					c0.337,0.341,0.506,0.75,0.506,1.23c0,0.471-0.169,0.875-0.506,1.215s-0.743,0.51-1.22,0.51c-0.466,0-0.866-0.17-1.204-0.51
					c-0.336-0.34-0.505-0.744-0.505-1.215c0-0.48,0.169-0.89,0.505-1.23C260.338,168.394,260.738,168.224,261.204,168.224z"/>
				<rect x="260.17" y="174.908" fill-rule="evenodd" clip-rule="evenodd" width="2.085" height="16.28"/>
			</g>
			<path fill-rule="evenodd" clip-rule="evenodd" d="M281.512,178.29l-1.662,1.033c-1.442-1.9-3.409-2.852-5.902-2.852
				c-1.993,0-3.647,0.637-4.965,1.909c-1.316,1.272-1.975,2.818-1.975,4.638c0,1.184,0.303,2.297,0.908,3.341
				s1.438,1.854,2.494,2.431c1.056,0.576,2.239,0.865,3.552,0.865c2.403,0,4.365-0.951,5.888-2.852l1.662,1.093
				c-0.781,1.171-1.829,2.078-3.146,2.724c-1.316,0.645-2.815,0.967-4.496,0.967c-2.583,0-4.725-0.816-6.426-2.448
				c-1.702-1.632-2.553-3.618-2.553-5.956c0-1.572,0.398-3.033,1.194-4.381c0.795-1.35,1.889-2.402,3.279-3.158
				c1.392-0.756,2.948-1.135,4.67-1.135c1.08,0,2.124,0.164,3.13,0.492c1.007,0.326,1.859,0.754,2.56,1.279
				C280.426,176.807,281.021,177.476,281.512,178.29z"/>
			<path fill-rule="evenodd" clip-rule="evenodd" d="M312.855,176.674l-1.348,1.392c-1.121-1.083-2.217-1.625-3.288-1.625
				c-0.681,0-1.264,0.225-1.749,0.674c-0.486,0.447-0.729,0.971-0.729,1.568c0,0.529,0.199,1.031,0.599,1.51
				c0.399,0.488,1.238,1.062,2.517,1.719c1.558,0.807,2.616,1.584,3.175,2.332c0.55,0.758,0.823,1.611,0.823,2.558
				c0,1.337-0.469,2.468-1.409,3.396c-0.94,0.927-2.115,1.391-3.525,1.391c-0.94,0-1.838-0.205-2.692-0.613
				c-0.855-0.41-1.563-0.973-2.123-1.691l1.317-1.497c1.071,1.206,2.207,1.81,3.407,1.81c0.842,0,1.557-0.27,2.147-0.808
				s0.885-1.171,0.885-1.897c0-0.598-0.194-1.131-0.584-1.598c-0.391-0.459-1.271-1.037-2.642-1.734c-1.47-0.754-2.471-1.5-3-2.235
				c-0.53-0.735-0.796-1.575-0.796-2.52c0-1.232,0.423-2.257,1.271-3.071c0.846-0.814,1.915-1.223,3.207-1.223
				C309.82,174.509,311.333,175.231,312.855,176.674z"/>
			<polygon fill-rule="evenodd" clip-rule="evenodd" points="321.444,174.908 323.624,174.908 329.239,187.392 334.699,174.908 
				336.93,174.908 327.21,197.136 324.979,197.136 328.166,189.849 			"/>
			<g>
				<path fill-rule="evenodd" clip-rule="evenodd" d="M368.938,168.224c0.476,0,0.882,0.17,1.219,0.51
					c0.338,0.341,0.506,0.75,0.506,1.23c0,0.471-0.168,0.875-0.506,1.215c-0.337,0.34-0.743,0.51-1.219,0.51
					c-0.466,0-0.867-0.17-1.204-0.51s-0.506-0.744-0.506-1.215c0-0.48,0.169-0.89,0.506-1.23
					C368.071,168.394,368.473,168.224,368.938,168.224z"/>
				<rect x="367.903" y="174.908" fill-rule="evenodd" clip-rule="evenodd" width="2.085" height="16.28"/>
			</g>
			<path fill-rule="evenodd" clip-rule="evenodd" d="M381.641,176.674l-1.348,1.392c-1.121-1.083-2.218-1.625-3.289-1.625
				c-0.681,0-1.264,0.225-1.749,0.674c-0.485,0.447-0.729,0.971-0.729,1.568c0,0.529,0.2,1.031,0.599,1.51
				c0.399,0.488,1.238,1.062,2.517,1.719c1.558,0.807,2.616,1.584,3.175,2.332c0.55,0.758,0.824,1.611,0.824,2.558
				c0,1.337-0.471,2.468-1.41,3.396c-0.939,0.927-2.115,1.391-3.525,1.391c-0.939,0-1.838-0.205-2.693-0.613
				c-0.854-0.41-1.562-0.973-2.122-1.691l1.317-1.497c1.071,1.206,2.207,1.81,3.408,1.81c0.841,0,1.557-0.27,2.146-0.808
				s0.886-1.171,0.886-1.897c0-0.598-0.195-1.131-0.585-1.598c-0.391-0.459-1.271-1.037-2.641-1.734
				c-1.471-0.754-2.471-1.5-3.001-2.235s-0.796-1.575-0.796-2.52c0-1.232,0.424-2.257,1.27-3.071
				c0.847-0.814,1.917-1.223,3.209-1.223C378.605,174.509,380.117,175.231,381.641,176.674z"/>
			<g>
				<path fill-rule="evenodd" clip-rule="evenodd" d="M403.387,174.908h2.086v2.919c0.84-1.117,1.771-1.95,2.791-2.497
					c1.021-0.548,2.132-0.821,3.332-0.821c1.221,0,2.305,0.31,3.25,0.928c0.945,0.617,1.644,1.449,2.094,2.495
					s0.676,2.676,0.676,4.888v8.369h-2.086v-7.755c0-1.872-0.08-3.122-0.242-3.751c-0.252-1.075-0.723-1.885-1.413-2.428
					s-1.591-0.814-2.7-0.814c-1.271,0-2.408,0.419-3.414,1.256c-1.005,0.836-1.668,1.873-1.988,3.107
					c-0.199,0.807-0.299,2.281-0.299,4.423v5.962h-2.086V174.908z"/>
				<path fill-rule="evenodd" clip-rule="evenodd" d="M414.85,168.837l1.049,1.453c-0.72,0.526-1.326,0.881-1.82,1.063
					s-1.017,0.274-1.565,0.274c-0.719,0-1.458-0.188-2.216-0.561c-0.649-0.323-1.064-0.51-1.244-0.561
					c-0.239-0.07-0.499-0.105-0.778-0.105c-0.35,0-0.681,0.064-0.996,0.194c-0.313,0.13-0.771,0.423-1.37,0.878l-0.988-1.526
					c0.909-1.006,2.032-1.509,3.37-1.509c0.639,0,1.403,0.207,2.292,0.621c0.848,0.404,1.517,0.605,2.007,0.605
					C413.138,169.665,413.892,169.39,414.85,168.837z"/>
			</g>
			<g>
				<path d="M215.275,207.362c-0.774-1.957-1.528-3.877-2.261-5.759h-1.899l-6.92,16.838l2.269-0.002l1.725-4.919h5.749l1.724,4.921
					h4.099c-1.216-2.964-2.074-5.063-2.573-6.296C216.687,210.913,216.05,209.319,215.275,207.362z M208.87,211.996l2.275-5.47
					l2.169,5.47H208.87z"/>
				<path d="M244.457,203.89c-1.207-1.191-2.744-1.887-4.609-2.086h-9.069v16.638h8.845c2.115-0.283,3.835-1.291,5.159-3.022
					c1.324-1.732,1.986-3.682,1.986-5.846c0-0.367-0.083-1.107-0.249-2.225C246.353,206.233,245.665,205.08,244.457,203.89z
					 M241.672,214.581c-0.8,1.342-1.94,2.17-3.423,2.486h-3.623v-13.79h3.272c0.7,0.116,1.316,0.292,1.85,0.524
					c0.533,0.233,1.045,0.625,1.537,1.174c0.49,0.55,0.878,1.283,1.161,2.199s0.425,1.873,0.425,2.873
					C242.871,211.729,242.471,213.241,241.672,214.581z"/>
				<path d="M280.479,207.362c-0.775-1.957-1.529-3.877-2.262-5.759h-1.898l-6.922,16.838l2.27-0.002l1.726-4.919h5.748l1.725,4.921
					h4.099c-1.216-2.964-2.074-5.063-2.574-6.296C281.89,210.913,281.253,209.319,280.479,207.362z M274.072,211.996l2.275-5.47
					l2.169,5.47H274.072z"/>
				<path d="M297.07,209.311c0.608-0.408,1.058-0.907,1.35-1.499s0.438-1.203,0.438-1.836c0-1.116-0.384-2.09-1.149-2.924
					c-0.767-0.832-1.708-1.248-2.823-1.248h-7.371v16.638h3.723v-7.669h0.175l4.397,7.669h4.398l-5.223-8.194
					C295.768,210.03,296.463,209.718,297.07,209.311z M293.936,209.022c-0.566,0.5-1.282,0.75-2.149,0.75
					c-0.233,0-0.416-0.008-0.55-0.025v-6.57h1.175c0.85,0,1.512,0.301,1.986,0.9s0.712,1.324,0.712,2.173
					c0,0.217-0.055,0.608-0.162,1.175C294.839,207.991,294.502,208.523,293.936,209.022z"/>
				<path d="M351.146,203.89c-1.207-1.191-2.743-1.887-4.609-2.086h-9.069v16.638h8.845c2.115-0.283,3.835-1.291,5.159-3.022
					c1.324-1.732,1.986-3.682,1.986-5.846c0-0.367-0.083-1.107-0.25-2.225C353.041,206.233,352.354,205.08,351.146,203.89z
					 M348.361,214.581c-0.8,1.342-1.94,2.17-3.423,2.486h-3.623v-13.79h3.272c0.7,0.116,1.316,0.292,1.85,0.524
					c0.532,0.233,1.045,0.625,1.536,1.174c0.492,0.55,0.879,1.283,1.162,2.199s0.425,1.873,0.425,2.873
					C349.561,211.729,349.161,213.241,348.361,214.581z"/>
				<path d="M407.856,209.311c0.608-0.408,1.058-0.907,1.35-1.499s0.437-1.203,0.437-1.836c0-1.116-0.383-2.09-1.148-2.924
					c-0.767-0.832-1.708-1.248-2.824-1.248h-7.37v16.638h3.723v-7.669h0.175l4.397,7.669h4.397l-5.222-8.194
					C406.553,210.03,407.249,209.718,407.856,209.311z M404.721,209.022c-0.566,0.5-1.282,0.75-2.148,0.75
					c-0.232,0-0.416-0.008-0.55-0.025v-6.57h1.175c0.85,0,1.511,0.301,1.985,0.9c0.476,0.6,0.713,1.324,0.713,2.173
					c0,0.217-0.055,0.608-0.163,1.175S405.287,208.523,404.721,209.022z"/>
				<path d="M210.483,178.667c0.779-0.953,1.168-2.162,1.168-3.629c0-1.455-0.399-2.664-1.198-3.627
					c-0.799-0.963-1.828-1.598-3.086-1.907c-0.879-0.22-2.577-0.329-5.093-0.329h-4.39v22.014h2.208v-10.24h1.572
					c2.735,0,4.602-0.12,5.601-0.359C208.631,180.26,209.705,179.619,210.483,178.667z M203.823,178.847l-3.731-0.045v-7.48h3.896
					c1.489,0,2.56,0.129,3.214,0.389c0.655,0.26,1.182,0.695,1.581,1.309c0.4,0.613,0.6,1.289,0.6,2.027
					c0,0.758-0.2,1.443-0.6,2.057c-0.399,0.614-0.949,1.059-1.648,1.332C206.435,178.709,205.331,178.847,203.823,178.847z"/>
				<path d="M234.088,188.389v2.8h2.084v-16.28h-2.084v2.994c-0.818-1.138-1.767-1.988-2.848-2.55
					c-1.082-0.562-2.289-0.844-3.625-0.844c-2.312,0-4.289,0.832-5.934,2.494c-1.644,1.662-2.466,3.662-2.466,6
					c0,2.389,0.815,4.416,2.444,6.084c1.63,1.666,3.595,2.5,5.896,2.5c1.296,0,2.489-0.266,3.579-0.799
					C232.227,190.257,233.211,189.456,234.088,188.389z M227.763,189.655c-1.134,0-2.196-0.291-3.186-0.871
					c-0.99-0.581-1.778-1.393-2.366-2.436c-0.586-1.043-0.88-2.135-0.88-3.277c0-1.151,0.291-2.244,0.873-3.276
					s1.365-1.835,2.351-2.405c0.984-0.571,2.059-0.857,3.224-0.857c1.811,0,3.335,0.631,4.573,1.893
					c1.238,1.261,1.858,2.83,1.858,4.707c0,1.23-0.276,2.338-0.828,3.32c-0.552,0.984-1.341,1.764-2.366,2.34
					C229.992,189.367,228.907,189.655,227.763,189.655z"/>
				<path d="M298.729,177.902c-0.816-1.138-1.766-1.988-2.847-2.55c-1.082-0.562-2.29-0.844-3.625-0.844
					c-2.312,0-4.289,0.832-5.934,2.494s-2.466,3.662-2.466,6c0,2.389,0.814,4.416,2.443,6.084c1.629,1.666,3.595,2.5,5.896,2.5
					c1.295,0,2.489-0.266,3.58-0.799c1.091-0.531,2.074-1.332,2.951-2.399v2.8h2.086v-16.28h-2.086V177.902z M298.023,186.452
					c-0.553,0.984-1.341,1.764-2.365,2.34c-1.025,0.575-2.109,0.863-3.254,0.863c-1.134,0-2.195-0.291-3.186-0.871
					c-0.99-0.581-1.778-1.393-2.365-2.436s-0.88-2.135-0.88-3.277c0-1.151,0.29-2.244,0.872-3.276s1.366-1.835,2.351-2.405
					c0.985-0.571,2.06-0.857,3.224-0.857c1.811,0,3.335,0.631,4.574,1.893c1.238,1.261,1.857,2.83,1.857,4.707
					C298.852,184.362,298.575,185.47,298.023,186.452z"/>
				<path d="M358.387,169.968c-1.487-0.529-3.877-0.793-7.171-0.793h-4.567v22.014h7.007c2.745,0,4.879-0.399,6.401-1.197
					c1.521-0.799,2.76-2.035,3.713-3.711c0.954-1.676,1.43-3.617,1.43-5.822c0-2.554-0.601-4.754-1.804-6.6
					C362.193,172.013,360.523,170.716,358.387,169.968z M361.513,185.626c-0.946,1.401-2.245,2.371-3.896,2.909
					c-1.174,0.379-3.278,0.568-6.313,0.568h-2.539v-17.782h1.553c3.154,0,5.419,0.209,6.792,0.627
					c1.832,0.559,3.26,1.592,4.284,3.097c1.025,1.505,1.538,3.32,1.538,5.444C362.931,182.513,362.458,184.226,361.513,185.626z"/>
				<path d="M398.16,185.792c-0.643,1.057-1.238,1.82-1.79,2.295c-0.552,0.473-1.222,0.854-2.01,1.139
					c-0.787,0.287-1.598,0.43-2.431,0.43c-1.725,0-3.174-0.602-4.348-1.807c-1.175-1.205-1.781-2.748-1.821-4.632h14.718
					c-0.02-2.22-0.621-4.072-1.804-5.556c-1.663-2.102-3.888-3.152-6.673-3.152c-2.706,0-4.865,1.025-6.479,3.076
					c-1.273,1.611-1.909,3.447-1.909,5.508c0,2.189,0.751,4.152,2.253,5.889c1.503,1.737,3.586,2.605,6.249,2.605
					c1.202,0,2.278-0.182,3.229-0.543c0.951-0.363,1.808-0.891,2.568-1.586c0.762-0.693,1.433-1.607,2.014-2.738L398.16,185.792z
					 M387.885,178.043c1.155-1.027,2.537-1.54,4.145-1.54c0.975,0,1.904,0.203,2.789,0.613c0.885,0.408,1.596,0.946,2.133,1.614
					s0.947,1.561,1.228,2.677h-12.208C386.403,179.912,387.041,178.79,387.885,178.043z"/>
				<path d="M435.118,177.226c-1.652-1.811-3.735-2.717-6.248-2.717c-2.524,0-4.612,0.911-6.264,2.732
					c-1.502,1.652-2.253,3.603-2.253,5.852c0,2.27,0.793,4.252,2.38,5.949c1.588,1.696,3.633,2.545,6.137,2.545
					c2.493,0,4.533-0.849,6.12-2.545c1.588-1.697,2.381-3.68,2.381-5.949C437.371,180.833,436.62,178.878,435.118,177.226z
					 M434.37,186.419c-0.571,1.014-1.342,1.797-2.312,2.348c-0.971,0.552-2.036,0.828-3.196,0.828c-1.161,0-2.226-0.276-3.196-0.828
					c-0.971-0.551-1.741-1.334-2.312-2.348c-0.569-1.014-0.855-2.107-0.855-3.281c0-1.818,0.626-3.369,1.876-4.65
					c1.251-1.283,2.746-1.924,4.487-1.924c1.73,0,3.224,0.641,4.479,1.924c1.257,1.281,1.884,2.832,1.884,4.65
					C435.225,184.312,434.94,185.405,434.37,186.419z"/>
			</g>
		</g>
	</g>
</g>
</svg>
