<?xml version="1.0" encoding="utf-8"?>
<!-- Generator: Adobe Illustrator 16.0.0, SVG Export Plug-In . SVG Version: 6.00 Build 0)  -->
<!DOCTYPE svg PUBLIC "-//W3C//DTD SVG 1.1//EN" "http://www.w3.org/Graphics/SVG/1.1/DTD/svg11.dtd">
<svg version="1.1" id="Layer_1" xmlns="http://www.w3.org/2000/svg" xmlns:xlink="http://www.w3.org/1999/xlink" x="0px" y="0px"
	 width="1920px" height="1080px" viewBox="0 0 1920 1080" enable-background="new 0 0 1920 1080" xml:space="preserve">
<g>
	<defs>
		<rect id="SVGID_1_" width="1920" height="1080"/>
	</defs>
	<clipPath id="SVGID_2_">
		<use xlink:href="#SVGID_1_"  overflow="visible"/>
	</clipPath>
	<path clip-path="url(#SVGID_2_)" d="M1062.701,511.605h10.253v83.625c0,4.339,0.306,8.848,0.855,13.492
		c0.565,4.646,1.211,8.06,1.916,10.238h-10.627c-1.128-3.929-1.707-7.441-1.761-10.554c-4.577,4.008-9.095,7.027-13.561,9.065
		c-4.465,2.028-8.877,3.03-13.205,3.03c-8.584,0-15.959-3.473-22.131-10.443c-6.147-6.949-9.236-16.595-9.236-28.93
		c0-12.582,3.089-22.393,9.305-29.368c6.216-6.983,13.604-10.472,22.203-10.472c4.393,0,8.652,0.925,12.816,2.782
		c4.158,1.878,8.541,4.825,13.172,8.905V511.605z M1062.701,561.878c-4.241-3.774-8.435-6.586-12.539-8.463
		c-4.105-1.843-8.134-2.782-12.116-2.782c-6.459,0-11.834,2.509-16.133,7.553c-4.276,5.016-6.455,12.457-6.455,22.325
		c0,10.322,2.193,18.056,6.591,23.183c4.382,5.126,9.757,7.689,16.07,7.689c3.886,0,7.879-0.968,11.988-2.87
		c4.092-1.917,8.293-4.796,12.594-8.6V561.878z"/>
	<path clip-path="url(#SVGID_2_)" d="M1098.339,512.602h10.341v12.393h-10.341V512.602z M1098.339,542.831h10.341v76.129h-10.341
		V542.831z"/>
	<path clip-path="url(#SVGID_2_)" d="M1135.08,574.845c-3.735-3.925-5.593-8.283-5.593-13.103c0-5.569,2.286-10.365,6.877-14.402
		c4.587-4.037,10.93-6.051,19.086-6.051c5.428,0,10.584,0.978,15.433,2.962c4.825,1.97,8.959,4.894,12.335,8.75l-7.811,6.615
		c-2.938-3.361-5.968-5.812-9.097-7.384c-3.089-1.586-6.673-2.383-10.666-2.383c-5.155,0-9.086,1.113-11.756,3.317
		c-2.66,2.231-4.013,4.796-4.013,7.719c0,2.51,1.075,4.757,3.132,6.728c2.024,1.983,6.805,3.968,14.291,5.895
		c11.575,3.005,19.348,6.614,23.371,10.846c4.012,4.262,6.021,8.931,6.021,14.018c0,6.09-2.408,11.299-7.18,15.628
		c-4.811,4.354-11.328,6.503-19.582,6.503c-6.051,0-11.619-1.128-16.703-3.404c-5.087-2.271-10.485-6.061-16.152-11.353l8.892-6.201
		c4.231,4.256,8.239,7.291,11.945,9.11c3.735,1.818,7.651,2.729,11.81,2.729c5.291,0,9.388-1.27,12.295-3.794
		c2.895-2.52,4.354-5.497,4.354-8.886c0-2.841-1.104-5.264-3.278-7.307c-3.06-2.864-9.236-5.511-18.469-7.908
		c-5.705-1.518-10.447-3.2-14.222-5.029C1138.5,577.549,1136.724,576.348,1135.08,574.845"/>
	<path clip-path="url(#SVGID_2_)" d="M1262.933,601.897c-4.675,6.261-9.65,10.944-14.928,14.003
		c-5.292,3.074-10.749,4.602-16.426,4.602c-8.987,0-16.648-3.526-23.098-10.583c-6.411-7.053-9.621-16.898-9.621-29.49
		c0-12.13,3.171-21.692,9.509-28.668c6.353-6.984,13.784-10.472,22.286-10.472c5.662,0,11.11,1.653,16.343,4.991
		c5.253,3.307,9.192,7.811,11.801,13.477c2.631,5.662,4.008,13.036,4.134,22.092h-53.736c0.248,6.046,1.157,11.007,2.758,14.869
		c2.12,5.098,4.99,8.818,8.57,11.148c3.614,2.329,7.057,3.517,10.418,3.517c8.381,0,16.265-5.156,23.565-15.438L1262.933,601.897z
		 M1252.184,572.574c-0.76-7.17-3.217-12.803-7.321-16.884c-4.134-4.095-8.818-6.133-13.988-6.133
		c-6.323,0-11.396,2.427-15.198,7.247c-3.805,4.854-5.818,10.117-6.066,15.77H1252.184z"/>
	<path clip-path="url(#SVGID_2_)" d="M1289.736,551.625c5.579-3.309,10.983-5.856,16.207-7.651c5.209-1.79,9.44-2.685,12.689-2.685
		c3.653,0,7.014,0.759,10.088,2.286c3.104,1.547,5.774,4.192,8.065,7.938c2.256,3.75,3.375,8.41,3.375,13.989v53.458h-10.321
		v-52.699c0-5.239-1.158-9.125-3.473-11.659c-2.315-2.563-5.457-3.833-9.427-3.833c-3.638,0-7.704,0.773-12.236,2.33
		c-4.539,1.571-9.511,3.915-14.968,7.072v58.789h-10.325v-76.129h10.325V551.625z M1288.001,531.085
		c0.083-6.231,1.323-10.779,3.721-13.628c2.368-2.851,5.263-4.281,8.667-4.281c3.098,0,7.067,1.557,11.893,4.67
		c3.172,2.028,5.457,3.039,6.862,3.039c1.377,0,2.563-0.476,3.609-1.444c1.036-0.973,2.058-3.055,3.06-6.265h5.788
		c-0.248,6.036-1.639,10.569-4.188,13.59c-2.534,3.016-5.458,4.533-8.78,4.533c-3.006,0-6.877-1.489-11.615-4.465
		c-3.049-1.931-5.281-2.894-6.629-2.894c-1.284,0-2.412,0.438-3.366,1.342c-0.977,0.895-1.887,2.831-2.737,5.803H1288.001z"/>
	<path clip-path="url(#SVGID_2_)" d="M1358.172,556.007c4.864-5.044,10.117-8.765,15.793-11.162
		c5.666-2.369,11.192-3.556,16.634-3.556c6.271,0,11.62,1.377,16.042,4.173c4.396,2.787,7.456,6.216,9.163,10.326
		c1.284,3.167,1.932,7.384,1.932,12.676v32.291c0,6.42,0.69,12.485,2.179,18.205h-10.561c-1.264-4.494-1.955-8.735-2.052-12.763
		c-4.699,4.771-9.522,8.352-14.401,10.726c-4.879,2.397-9.894,3.579-14.967,3.579c-6.487,0-11.683-1.939-15.667-5.841
		c-3.954-3.901-5.938-8.794-5.938-14.694c0-4.819,1.542-9.329,4.587-13.546c3.074-4.202,7.856-7.51,14.319-9.908
		c4.714-1.765,15.408-4.436,32.067-8.073v-4.742c0-3.998-1.42-7.346-4.203-10.034c-2.811-2.685-6.366-4.022-10.666-4.022
		c-3.856,0-7.884,0.948-12.071,2.864c-4.188,1.916-9.042,5.21-14.621,9.952L1358.172,556.007z M1407.302,600.244v-24.242
		c-11.449,2.744-19.032,4.757-22.641,6.027c-5.804,1.994-10.074,4.543-12.788,7.699c-2.704,3.128-4.08,6.479-4.08,10.02
		c0,3.361,1.172,6.134,3.526,8.327c2.314,2.204,5.457,3.308,9.372,3.308c3.722,0,7.802-0.938,12.237-2.812
		C1397.365,606.708,1402.146,603.936,1407.302,600.244"/>
	<path clip-path="url(#SVGID_2_)" d="M1491.797,511.605h10.253v83.625c0,4.339,0.302,8.848,0.852,13.492
		c0.579,4.646,1.187,8.06,1.931,10.238h-10.652c-1.117-3.929-1.696-7.441-1.765-10.554c-4.563,4.008-9.095,7.027-13.562,9.065
		c-4.449,2.028-8.861,3.03-13.186,3.03c-8.599,0-15.973-3.473-22.135-10.443c-6.158-6.949-9.232-16.595-9.232-28.93
		c0-12.582,3.089-22.393,9.315-29.368c6.186-6.983,13.604-10.472,22.188-10.472c4.397,0,8.667,0.925,12.802,2.782
		c4.163,1.878,8.546,4.825,13.19,8.905V511.605z M1491.797,561.878c-4.246-3.774-8.434-6.586-12.544-8.463
		c-4.104-1.843-8.142-2.782-12.096-2.782c-6.464,0-11.868,2.509-16.153,7.553c-4.3,5.016-6.45,12.457-6.45,22.325
		c0,10.322,2.204,18.056,6.586,23.183c4.397,5.126,9.758,7.689,16.07,7.689c3.887,0,7.856-0.968,11.976-2.87
		c4.096-1.917,8.312-4.796,12.611-8.6V561.878z"/>
	<path clip-path="url(#SVGID_2_)" d="M1554.775,620.502c-9.758,0-17.982-3.556-24.611-10.69c-6.674-7.111-9.98-16.702-9.98-28.736
		c0-8.035,1.464-15.146,4.396-21.347c2.967-6.202,7.072-10.832,12.364-13.877s10.914-4.562,16.868-4.562
		c5.743,0,11.244,1.571,16.508,4.698c5.267,3.142,9.426,7.899,12.514,14.237c3.074,6.337,4.602,13.424,4.602,21.278
		c0,11.937-3.234,21.44-9.698,28.444C1571.258,616.99,1563.622,620.502,1554.775,620.502 M1553.865,611.737
		c6.23,0,11.659-2.699,16.236-8.074c4.63-5.389,6.931-13.094,6.931-23.151c0-9.907-2.247-17.477-6.736-22.656
		c-4.479-5.195-9.898-7.801-16.207-7.801c-6.727,0-12.349,2.66-16.896,7.937c-4.562,5.278-6.834,12.846-6.834,22.657
		c0,10.058,2.3,17.752,6.873,23.069C1541.822,609.067,1547.347,611.737,1553.865,611.737"/>
	<path clip-path="url(#SVGID_2_)" d="M1615.953,560.044c4.24-6.518,8.696-11.284,13.337-14.304c4.645-3.017,9.951-4.534,15.89-4.534
		c0.661,0,1.6,0.03,2.826,0.083l-1.474,11.382l-3.75-0.205c-2.743-0.136-5.812,0.511-9.203,1.955
		c-3.404,1.436-6.439,3.707-9.11,6.824c-2.66,3.113-4.757,6.985-6.269,11.616c-1.488,4.614-2.247,8.711-2.247,12.251v33.848h-10.352
		v-76.129h10.352V560.044z"/>
	<path clip-path="url(#SVGID_2_)" d="M1716.018,601.897c-4.675,6.261-9.645,10.944-14.937,14.003
		c-5.292,3.074-10.754,4.602-16.445,4.602c-8.955,0-16.659-3.526-23.069-10.583c-6.406-7.053-9.631-16.898-9.631-29.49
		c0-12.13,3.166-21.692,9.523-28.668c6.353-6.984,13.78-10.472,22.282-10.472c5.651,0,11.108,1.653,16.347,4.991
		c5.234,3.307,9.148,7.811,11.795,13.477c2.602,5.662,3.998,13.036,4.135,22.092h-53.746c0.248,6.046,1.157,11.007,2.768,14.869
		c2.126,5.098,4.976,8.818,8.561,11.148c3.609,2.329,7.053,3.517,10.418,3.517c8.375,0,16.26-5.156,23.565-15.438L1716.018,601.897z
		 M1705.239,572.574c-0.73-7.17-3.196-12.803-7.302-16.884c-4.134-4.095-8.808-6.133-13.978-6.133
		c-6.338,0-11.411,2.427-15.215,7.247c-3.804,4.854-5.812,10.117-6.05,15.77H1705.239z"/>
	<path clip-path="url(#SVGID_2_)" d="M1733.849,574.845c-3.722-3.925-5.595-8.283-5.595-13.103c0-5.569,2.286-10.365,6.863-14.402
		c4.563-4.037,10.954-6.051,19.13-6.051c5.413,0,10.54,0.978,15.395,2.962c4.835,1.97,8.954,4.894,12.335,8.75l-7.802,6.615
		c-2.952-3.361-5.982-5.812-9.096-7.384c-3.089-1.586-6.674-2.383-10.695-2.383c-5.155,0-9.066,1.113-11.741,3.317
		c-2.646,2.231-3.969,4.796-3.969,7.719c0,2.51,1.007,4.757,3.088,6.728c2.067,1.983,6.805,3.968,14.305,5.895
		c11.547,3.005,19.349,6.614,23.371,10.846c3.998,4.262,6.012,8.931,6.012,14.018c0,6.09-2.389,11.299-7.184,15.628
		c-4.781,4.354-11.314,6.503-19.582,6.503c-6.036,0-11.606-1.128-16.703-3.404c-5.082-2.271-10.486-6.061-16.153-11.353l8.906-6.201
		c4.242,4.256,8.226,7.291,11.96,9.11c3.721,1.818,7.661,2.729,11.824,2.729c5.263,0,9.344-1.27,12.238-3.794
		c2.908-2.52,4.367-5.497,4.367-8.886c0-2.841-1.09-5.264-3.248-7.307c-3.075-2.864-9.223-5.511-18.483-7.908
		c-5.735-1.518-10.462-3.2-14.251-5.029C1737.268,577.549,1735.502,576.348,1733.849,574.845"/>
	<path clip-path="url(#SVGID_2_)" d="M1062.701,648.065h10.253v83.625c0,4.329,0.306,8.818,0.855,13.479
		c0.565,4.645,1.211,8.049,1.916,10.228h-10.627c-1.128-3.915-1.707-7.432-1.761-10.559c-4.577,4.021-9.095,7.043-13.561,9.081
		c-4.465,2.027-8.877,3.044-13.205,3.044c-8.584,0-15.959-3.497-22.131-10.442c-6.147-6.96-9.236-16.62-9.236-28.926
		c0-12.597,3.089-22.398,9.305-29.397c6.216-6.988,13.604-10.477,22.203-10.477c4.393,0,8.652,0.939,12.816,2.802
		c4.158,1.858,8.541,4.835,13.172,8.887V648.065z M1062.701,698.339c-4.241-3.789-8.435-6.585-12.539-8.458
		c-4.105-1.878-8.134-2.802-12.116-2.802c-6.459,0-11.834,2.51-16.133,7.54c-4.276,5.019-6.455,12.46-6.455,22.324
		c0,10.335,2.193,18.083,6.591,23.21c4.382,5.112,9.757,7.66,16.07,7.66c3.886,0,7.879-0.938,11.988-2.863
		c4.092-1.902,8.293-4.772,12.594-8.6V698.339z"/>
	<path clip-path="url(#SVGID_2_)" d="M1154.969,738.335c-4.674,6.283-9.636,10.953-14.928,14.026
		c-5.292,3.061-10.748,4.602-16.425,4.602c-8.974,0-16.648-3.526-23.099-10.594c-6.406-7.057-9.621-16.883-9.621-29.479
		c0-12.14,3.172-21.693,9.514-28.692c6.367-6.988,13.779-10.477,22.281-10.477c5.667,0,11.11,1.668,16.358,4.99
		c5.237,3.337,9.178,7.831,11.784,13.492c2.603,5.666,4.009,13.035,4.135,22.093h-53.731c0.243,6.05,1.157,11.012,2.753,14.869
		c2.125,5.102,4.99,8.808,8.575,11.147c3.609,2.344,7.052,3.502,10.418,3.502c8.405,0,16.26-5.127,23.566-15.433L1154.969,738.335z
		 M1144.22,709.034c-0.773-7.193-3.187-12.815-7.345-16.896c-4.109-4.076-8.779-6.133-13.964-6.133
		c-6.323,0-11.396,2.427-15.2,7.261c-3.804,4.84-5.812,10.093-6.035,15.769H1144.22z"/>
	<path clip-path="url(#SVGID_2_)" d="M1209.678,692.453c4.868-5.054,10.131-8.778,15.807-11.147
		c5.652-2.383,11.207-3.584,16.649-3.584c6.255,0,11.62,1.41,16.012,4.191c4.441,2.782,7.486,6.217,9.184,10.336
		c1.294,3.171,1.896,7.373,1.896,12.665v32.287c0,6.425,0.749,12.485,2.224,18.196h-10.574c-1.266-4.48-1.955-8.711-2.038-12.739
		c-4.743,4.772-9.538,8.352-14.416,10.726c-4.879,2.368-9.865,3.58-14.991,3.58c-6.449,0-11.674-1.955-15.628-5.856
		c-3.969-3.901-5.953-8.804-5.953-14.704c0-4.825,1.542-9.313,4.602-13.531c3.073-4.192,7.855-7.515,14.305-9.923
		c4.713-1.75,15.433-4.425,32.082-8.063v-4.742c0-4.008-1.406-7.345-4.217-10.029c-2.812-2.689-6.353-4.037-10.667-4.037
		c-3.857,0-7.885,0.963-12.058,2.864c-4.178,1.931-9.056,5.239-14.62,9.952L1209.678,692.453z M1258.837,736.695v-24.242
		c-11.479,2.739-19.019,4.752-22.656,6.036c-5.816,1.97-10.059,4.548-12.787,7.69c-2.719,3.128-4.065,6.474-4.065,10.015
		c0,3.366,1.143,6.134,3.512,8.341c2.329,2.189,5.471,3.279,9.372,3.279c3.721,0,7.802-0.924,12.237-2.782
		C1248.885,743.154,1253.681,740.372,1258.837,736.695"/>
	<path clip-path="url(#SVGID_2_)" d="M1301.931,688.071c5.584-3.308,10.983-5.856,16.168-7.646c5.233-1.79,9.479-2.703,12.733-2.703
		c3.623,0,6.984,0.772,10.088,2.314c3.084,1.517,5.759,4.178,8.021,7.913c2.286,3.775,3.419,8.42,3.419,14.003v53.445h-10.34
		v-52.676c0-5.234-1.168-9.135-3.498-11.684c-2.29-2.539-5.433-3.833-9.402-3.833c-3.623,0-7.714,0.783-12.246,2.345
		c-4.538,1.566-9.499,3.91-14.942,7.082v58.766h-10.351v-76.101h10.351V688.071z"/>
	<path clip-path="url(#SVGID_2_)" d="M1425.823,648.065h10.269v83.625c0,4.329,0.276,8.818,0.855,13.479
		c0.549,4.645,1.196,8.049,1.902,10.228h-10.613c-1.129-3.915-1.737-7.432-1.766-10.559c-4.587,4.021-9.097,7.043-13.561,9.081
		c-4.475,2.027-8.872,3.044-13.216,3.044c-8.584,0-15.973-3.497-22.116-10.442c-6.177-6.96-9.261-16.62-9.261-28.926
		c0-12.597,3.128-22.398,9.315-29.397c6.229-6.988,13.613-10.477,22.213-10.477c4.383,0,8.658,0.939,12.816,2.802
		c4.163,1.858,8.545,4.835,13.161,8.887V648.065z M1425.823,698.339c-4.256-3.789-8.434-6.585-12.523-8.458
		c-4.11-1.878-8.162-2.802-12.132-2.802c-6.448,0-11.823,2.51-16.123,7.54c-4.3,5.019-6.449,12.46-6.449,22.324
		c0,10.335,2.208,18.083,6.591,23.21c4.382,5.112,9.756,7.66,16.065,7.66c3.886,0,7.868-0.938,11.965-2.863
		c4.104-1.902,8.321-4.772,12.606-8.6V698.339z"/>
	<path clip-path="url(#SVGID_2_)" d="M1455.936,692.453c4.864-5.054,10.117-8.778,15.769-11.147
		c5.662-2.383,11.217-3.584,16.644-3.584c6.285,0,11.636,1.41,16.042,4.191c4.411,2.782,7.472,6.217,9.179,10.336
		c1.269,3.171,1.901,7.373,1.901,12.665v32.287c0,6.425,0.72,12.485,2.208,18.196h-10.584c-1.255-4.48-1.931-8.711-2.027-12.739
		c-4.729,4.772-9.533,8.352-14.427,10.726c-4.863,2.368-9.868,3.58-14.967,3.58c-6.463,0-11.688-1.955-15.656-5.856
		c-3.939-3.901-5.938-8.804-5.938-14.704c0-4.825,1.542-9.313,4.587-13.531c3.088-4.192,7.854-7.515,14.333-9.923
		c4.713-1.75,15.409-4.425,32.068-8.063v-4.742c0-4.008-1.422-7.345-4.232-10.029c-2.811-2.689-6.337-4.037-10.637-4.037
		c-3.857,0-7.895,0.963-12.072,2.864c-4.188,1.931-9.056,5.239-14.636,9.952L1455.936,692.453z M1505.066,736.695v-24.242
		c-11.479,2.739-19.032,4.752-22.656,6.036c-5.817,1.97-10.06,4.548-12.773,7.69c-2.728,3.128-4.08,6.474-4.08,10.015
		c0,3.366,1.157,6.134,3.502,8.341c2.34,2.189,5.457,3.279,9.368,3.279c3.75,0,7.83-0.924,12.267-2.782
		C1495.129,743.154,1499.915,740.372,1505.066,736.695"/>
	<rect x="1539.755" y="648.066" clip-path="url(#SVGID_2_)" width="10.336" height="107.331"/>
	<path clip-path="url(#SVGID_2_)" d="M1573.603,679.297h10.336v49.913c0,5.511,1.348,9.84,4.076,12.942
		c2.719,3.113,5.929,4.699,9.664,4.699c3.332,0,7.014-0.938,10.969-2.758c3.954-1.805,8.997-5.239,15.093-10.283v-54.514h10.389
		v76.1h-10.389v-12.252c-5.778,4.587-11.026,8.03-15.793,10.347c-4.772,2.314-9.071,3.472-12.875,3.472
		c-3.691,0-7.164-0.852-10.39-2.52c-3.254-1.669-5.899-4.426-7.981-8.282c-2.053-3.857-3.099-8.862-3.099-15.05V679.297z"/>
	<path clip-path="url(#SVGID_2_)" d="M1714.942,736.929c-3.42,6.172-7.208,10.803-11.304,13.862
		c-5.482,4.11-11.654,6.172-18.493,6.172c-5.953,0-11.522-1.624-16.741-4.82c-5.224-3.194-9.251-7.854-12.101-13.948
		c-2.855-6.091-4.285-13.08-4.285-20.959c0-12.141,3.249-21.746,9.728-28.844c6.504-7.101,14.305-10.671,23.469-10.671
		c6.187,0,11.809,1.629,16.857,4.894c5.044,3.254,9.354,8.146,12.87,14.664l-8.989,4.879c-2.863-5.331-5.977-9.314-9.313-11.946
		c-3.361-2.605-7.223-3.915-11.547-3.915c-6.201,0-11.537,2.646-16.041,7.923c-4.523,5.292-6.78,13.191-6.78,23.648
		c0,9.247,2.286,16.581,6.833,21.956c4.563,5.374,9.787,8.074,15.683,8.074c8.93,0,15.986-5.321,21.166-15.93L1714.942,736.929z"/>
	<path clip-path="url(#SVGID_2_)" d="M1744.102,645.804h18.356l-28.527,21.941h-8.847L1744.102,645.804z M1733.163,679.297h10.336
		v76.101h-10.336V679.297z"/>
	<path clip-path="url(#SVGID_2_)" d="M1764.773,692.453c4.868-5.054,10.131-8.778,15.793-11.147
		c5.666-2.383,11.191-3.584,16.634-3.584c6.284,0,11.649,1.41,16.042,4.191c4.396,2.782,7.456,6.217,9.168,10.336
		c1.264,3.171,1.911,7.373,1.911,12.665v32.287c0,6.425,0.734,12.485,2.193,18.196h-10.555c-1.284-4.48-1.96-8.711-2.057-12.739
		c-4.714,4.772-9.519,8.352-14.397,10.726c-4.893,2.368-9.869,3.58-14.98,3.58c-6.465,0-11.674-1.955-15.643-5.856
		c-3.954-3.901-5.954-8.804-5.954-14.704c0-4.825,1.558-9.313,4.603-13.531c3.088-4.192,7.824-7.515,14.318-9.923
		c4.713-1.75,15.395-4.425,32.054-8.063v-4.742c0-4.008-1.392-7.345-4.202-10.029c-2.812-2.689-6.367-4.037-10.667-4.037
		c-3.857,0-7.895,0.963-12.072,2.864c-4.158,1.931-9.052,5.239-14.606,9.952L1764.773,692.453z M1813.903,736.695v-24.242
		c-11.449,2.739-19.003,4.752-22.656,6.036c-5.798,1.97-10.06,4.548-12.773,7.69c-2.704,3.128-4.08,6.474-4.08,10.015
		c0,3.366,1.173,6.134,3.517,8.341c2.354,2.189,5.467,3.279,9.383,3.279c3.721,0,7.801-0.924,12.252-2.782
		C1803.971,743.154,1808.767,740.372,1813.903,736.695"/>
	<path clip-path="url(#SVGID_2_)" d="M102.245,499.104c15.219-18.055,33.454-31.82,54.714-41.323
		c21.236-9.495,43.999-14.242,68.25-14.242c25.2,0,47.408,4.504,66.567,13.536c13.915,6.771,26.012,18.006,36.265,33.707
		c10.234,15.71,15.37,35.404,15.37,59.09v143.315c0,9.012,1.128,19.927,3.385,32.685c2.257,12.807,4.689,22.963,7.325,30.486
		h-67.987c-3.181-10.335-5.623-20.88-7.325-31.585c-13.911,12.208-28.337,21.43-43.289,27.646
		c-14.956,6.196-30.428,9.284-46.396,9.284c-27.856,0-50.75-8.404-68.688-25.233c-17.972-16.824-26.951-36.824-26.951-59.933
		c0-16.182,4.134-31.504,12.413-45.974c8.278-14.499,20.399-27.135,36.396-37.953c15.973-10.807,36.1-19.518,60.347-26.09
		c18.254-4.893,42.782-9.027,73.629-12.402c0-12.981-1.129-22.394-3.385-28.226c-3.391-9.027-9.295-16.075-17.763-21.153
		c-8.454-5.073-18.892-7.607-31.304-7.607c-29.913,0-55.021,13.629-75.332,40.901L102.245,499.104z M276.27,675.134v-77.011
		c-44.957,8.458-75.77,20.011-92.521,34.685c-12.962,11.095-19.465,23.609-19.465,37.515c0,11.289,3.711,20.589,11.148,27.934
		c7.432,7.335,16.882,10.998,28.337,10.998c9.781,0,20.749-2.881,32.88-8.6C248.77,694.925,261.979,686.407,276.27,675.134"/>
	<path clip-path="url(#SVGID_2_)" d="M385.288,499.104c15.244-18.055,33.469-31.82,54.734-41.323
		c21.24-9.495,44.004-14.242,68.245-14.242c25.2,0,47.394,4.504,66.572,13.536c13.92,6.771,25.997,18.006,36.26,33.707
		c10.244,15.71,15.351,35.404,15.351,59.09v143.315c0,9.012,1.128,19.927,3.39,32.685c2.276,12.807,4.708,22.963,7.34,30.486
		h-67.983c-3.186-10.335-5.637-20.88-7.32-31.585c-13.916,12.208-28.361,21.43-43.323,27.646
		c-14.932,6.196-30.394,9.284-46.387,9.284c-27.831,0-50.725-8.404-68.687-25.233c-17.948-16.824-26.927-36.824-26.927-59.933
		c0-16.182,4.134-31.504,12.413-45.974c8.268-14.499,20.394-27.135,36.387-37.953c15.972-10.807,36.109-19.518,60.356-26.09
		c18.244-4.893,42.782-9.027,73.619-12.402c0-12.981-1.124-22.394-3.38-28.226c-3.386-9.027-9.31-16.075-17.768-21.153
		c-8.473-5.073-18.916-7.607-31.324-7.607c-29.893,0-55,13.629-75.307,40.901L385.288,499.104z M559.328,675.134v-77.011
		c-44.952,8.458-75.789,20.011-92.511,34.685c-12.991,11.095-19.475,23.609-19.475,37.515c0,11.289,3.721,20.589,11.158,27.934
		c7.427,7.335,16.873,10.998,28.332,10.998c9.776,0,20.734-2.881,32.875-8.6C531.833,694.925,545.038,686.407,559.328,675.134"/>
	<path clip-path="url(#SVGID_2_)" d="M858.476,318.294h77.852V756.36h-77.852v-35.556c-12.807,13.561-26.236,23.702-40.351,30.469
		c-14.091,6.77-28.848,10.154-44.266,10.154c-30.662,0-56.611-12.479-77.875-37.51c-25.551-30.458-38.342-70.614-38.342-120.449
		c0-25.769,3.613-49.033,10.846-69.806c7.228-20.779,15.992-37.384,26.236-49.787c10.243-12.408,22.101-22.238,35.554-29.47
		c13.43-7.243,28.25-10.867,44.423-10.867c15.793,0,30.637,3.391,44.577,10.151c13.891,6.771,26.97,17.024,39.198,30.75V318.294z
		 M858.476,668.076v-129.2c-9.227-9.961-18.38-17.441-27.52-22.422c-9.115-4.98-18.186-7.481-27.208-7.481
		c-16.927,0-31.129,7.248-42.589,21.718c-11.483,14.484-17.208,39.319-17.208,74.475c0,31.776,5.973,55.084,17.914,69.968
		c11.926,14.824,26.177,22.271,42.719,22.271c9.407,0,18.585-2.456,27.525-7.335C841.024,685.192,849.809,677.847,858.476,668.076"
		/>
</g>
</svg>
