<?xml version="1.0" encoding="utf-8"?>
<!-- Generator: Adobe Illustrator 16.0.0, SVG Export Plug-In . SVG Version: 6.00 Build 0)  -->
<!DOCTYPE svg PUBLIC "-//W3C//DTD SVG 1.1//EN" "http://www.w3.org/Graphics/SVG/1.1/DTD/svg11.dtd">
<svg version="1.1" id="Layer_1" xmlns="http://www.w3.org/2000/svg" xmlns:xlink="http://www.w3.org/1999/xlink" x="0px" y="0px"
	 width="408.189px" height="70.333px" viewBox="0 0 408.189 70.333" enable-background="new 0 0 408.189 70.333"
	 xml:space="preserve">
<g>
	<path fill="#FFFFFF" d="M7.244,20.111H1.812l0.506-1.449h5.359l1.085-3.84c3.33-2.027,5.795-5.359,7.604-9.778l0.652-1.595h1.447
		L14.05,18.662h7.244l-0.507,1.449h-7.171l-6.663,23.25c-0.724,2.463-0.94,4.201-0.94,4.854c0,1.666,1.231,2.391,2.533,2.391
		c3.985,0,7.605-6.734,7.605-6.734l0.939,0.436c0,0-4.271,8.98-11.082,8.98C2.391,53.286,0,50.823,0,47.491
		c0-1.447,0.437-3.693,1.521-7.389L7.244,20.111z"/>
	<path fill="#FFFFFF" d="M54.352,44.303c0,0-3.552,8.98-10.144,8.98c-3.837,0-5.793-2.535-5.793-5.938
		c0-4.635,6.664-20.715,6.664-24.264c0-1.45-0.871-2.393-2.607-2.393c-6.084,0-12.167,12.534-13.183,14.85l-4.927,17.166H17.99
		L31.824,4.61l-5.577,0.504l0.362-1.014C33.563,3.305,37.692,2,37.692,2l1.159,0.29l-8.187,28.322
		c2.897-5.432,7.531-12.531,13.979-12.531c4.634,0,6.153,2.897,6.153,5.651c0,5.143-6.733,20.208-6.733,24.627
		c0,1.375,1.086,2.242,2.461,2.242c3.984,0,6.883-6.734,6.883-6.734L54.352,44.303z"/>
	<path fill="#FFFFFF" d="M64.316,35.756c-2.028,6.23-2.246,8.98-2.246,10.938c0,3.26,2.175,5.361,5.506,5.361
		c4.925,0,9.562-4.059,12.096-8.33l1.159,0.504c-2.969,5.289-8.329,9.055-13.472,9.055c-6.882,0-11.01-4.346-11.01-11.299
		c0-10.791,8.547-23.903,20.788-23.903c5.214,0,8.764,2.391,8.764,6.882c0,5.144-6.664,10.792-20.135,10.792H64.316L64.316,35.756z
		 M65.256,32.932l-0.507,1.521h1.306c10.792,0,15.138-4.924,15.138-9.778c0-3.693-2.173-5.359-4.781-5.359
		C69.675,19.314,67.43,26.124,65.256,32.932z"/>
	<path fill="#FFFFFF" d="M95.422,22.574c0,2.535,3.841,2.824,9.562,5.144c6.301,2.537,11.807,6.591,11.807,14.341
		c0,6.445-5.938,11.373-12.965,11.373c-6.446,0-8.619-1.451-11.154-1.451c-1.014,0-1.376,0.871-1.593,1.451l-0.799-0.146
		l0.507-11.951l0.941-0.072c1.737,4.854,5.142,10.936,12.458,10.936c3.84,0,7.534-1.881,7.534-4.416
		c0-3.041-3.77-2.393-11.663-5.865c-6.883-3.043-10.938-7.68-10.938-13.545c0-5.287,4.056-10.287,13.398-10.287
		c3.692,0,8.402,1.159,9.418,1.159c0.505,0,1.084-0.578,1.446-1.159l0.653,0.146l0.363,10.721l-0.942,0.072
		c-2.535-8.691-8.258-9.708-11.588-9.708C98.392,19.314,95.422,20.908,95.422,22.574z"/>
	<path fill="#FFFFFF" d="M118.728,52.706v-1.447h5.067V21.055h-5.067v-1.449c6.086-0.291,17.964-1.521,17.964-1.521l1.16,0.29V51.26
		h5.068v1.447L118.728,52.706L118.728,52.706z M130.39,14.17c-3.911,0-7.026-2.463-7.026-5.65c0-3.188,3.114-5.794,7.026-5.794
		c3.983,0,6.883,2.606,6.883,5.794C137.272,11.708,134.373,14.17,130.39,14.17z"/>
	<path fill="#FFFFFF" d="M145.36,52.706v-1.447h5.07V21.344h-5.07v-1.451c6.084-0.289,17.962-1.521,17.962-1.521l1.16,0.29v5.724
		c1.883-3.911,5.142-6.303,10.502-6.303c7.75,0,10.937,4.129,10.937,11.519v21.656h5.069v1.449h-22.018v-1.449h2.896v-23.18
		c0-4.563-0.072-6.733-2.318-6.733c-2.462,0-5.067,4.995-5.067,6.952v22.961h2.896v1.449L145.36,52.706L145.36,52.706z"/>
	<path fill="#FFFFFF" d="M214.454,18.518c-0.145-0.795-0.289-1.666-0.289-2.607c0-3.911,2.393-7.244,6.59-7.244
		c3.693,0,5.939,2.316,5.939,5.505c0,2.245-1.885,4.492-4.273,4.492c-2.533,0-4.346-1.812-4.346-4.131
		c0-0.797,0.289-2.316,1.447-3.477c-3.33,0.219-3.838,3.477-3.838,4.854c0,1.015,0.145,1.957,0.436,3.042
		c6.811,1.812,8.768,6.375,8.768,10.868c0,5.646-1.738,11.299-15.861,11.299c-3.912,0-6.955-0.436-9.272-1.16
		c-0.505,0.438-1.014,1.234-1.014,1.957c0,2.174,2.317,2.824,5.432,2.824c3.116,0,7.1-0.65,10.069-0.65
		c7.17,0,13.834,2.678,13.834,11.66c0,7.17-8.041,13.254-19.484,13.254c-12.385,0-14.991-5.215-14.991-7.893
		c0-2.973,1.881-4.998,3.621-6.305c-1.812-1.449-2.972-3.691-2.972-6.664c0-1.521,0.291-6.012,4.418-8.619
		c-5.145-2.027-6.229-5.867-6.229-9.705c0-5.795,3.911-11.735,16.587-11.735C211.05,18.083,212.862,18.229,214.454,18.518z
		 M199.534,56.254c-0.58,1.086-1.014,2.316-1.014,3.838c0,4.562,4.562,7.461,11.298,7.461c5.506,0,10.938-3.188,10.938-7.242
		c0-2.896-2.393-3.693-5.574-3.693c-3.043,0-6.885,0.725-10.143,0.725C203.156,57.34,201.201,56.979,199.534,56.254z
		 M206.632,23.734v11.95c0,2.971,0.652,4.271,2.395,4.271c1.738,0,2.391-1.303,2.391-4.271v-11.95c0-3.695-0.725-4.492-2.391-4.492
		C207.356,19.24,206.632,20.039,206.632,23.734z"/>
	<path fill="#FFFFFF" d="M268.38,18.662v32.594h5.068v1.449h-19.121v-5.578c-1.885,3.912-5.072,6.305-10.43,6.305
		c-7.75,0-10.939-4.129-10.939-11.518V20.111h-5.068v-1.449h19.125v22.961c0,6.809,0,8.547,2.529,8.547
		c2.246,0,4.781-4.998,4.781-6.953V20.111h-3.98v-1.449H268.38z"/>
	<path fill="#FFFFFF" d="M276.059,52.706v-1.447h5.068V5.697h-5.068V4.248c6.084-0.29,17.965-1.521,17.965-1.521l1.158,0.29V51.26
		h5.068v1.447L276.059,52.706L276.059,52.706z"/>
	<path fill="#FFFFFF" d="M339.891,49.954l0.578,1.158c-1.521,0.867-5.723,2.318-11.588,2.318c-3.479,0-6.951-1.812-6.951-5.146
		c-0.508,0.799-4.855,5.146-10.648,5.146c-4.998,0-9.344-2.896-9.344-8.188c0-3.404,2.029-6.445,4.346-8.402
		c4.998-0.725,11.084-1.158,15.646-3.691v-5.65c0-5.287-0.074-8.041-4.131-8.041c-3.188,0-5.285,2.103-5.285,3.043
		c0,0.867,2.244,2.173,2.244,4.997c0,2.68-2.176,4.489-4.854,4.489c-2.826,0-4.564-2.391-4.564-4.489
		c0-6.156,8.043-9.419,14.055-9.419c13.834,0,16.586,3.623,16.586,9.489v19.995c0,1.736,0.291,2.971,1.738,2.971
		C338.587,50.534,339.167,50.317,339.891,49.954z M321.93,34.598c-4.998,2.605-7.826,4.057-7.826,8.908
		c0,4.129,1.883,5.725,3.77,5.725c1.957,0,3.551-1.883,4.059-2.607V34.598H321.93z"/>
	<path fill="#FFFFFF" d="M342.788,52.706v-1.447h5.07V21.344h-5.07v-1.451c6.084-0.289,17.963-1.521,17.963-1.521l1.158,0.29V25.4
		c0.941-2.609,3.77-7.316,9.562-7.316c4.85,0,6.227,4.419,6.227,6.303c0,2.463-2.027,4.852-4.635,4.852
		c-2.896,0-4.852-1.881-4.852-4.344c0-2.102,1.594-3.767,1.594-3.985c0-0.289-0.146-0.435-0.508-0.435
		c-4.996,0-7.389,7.461-7.389,12.387v18.396h5.07v1.447H342.788L342.788,52.706L342.788,52.706z"/>
	<path fill="#FFFFFF" d="M386.821,22.574c0,2.535,3.84,2.824,9.562,5.144c6.301,2.537,11.805,6.591,11.805,14.341
		c0,6.445-5.938,11.373-12.963,11.373c-6.449,0-8.621-1.451-11.156-1.451c-1.016,0-1.375,0.871-1.594,1.451l-0.797-0.146
		l0.508-11.951l0.939-0.072c1.738,4.854,5.145,10.936,12.459,10.936c3.84,0,7.531-1.881,7.531-4.416
		c0-3.041-3.768-2.393-11.662-5.865c-6.879-3.043-10.938-7.68-10.938-13.545c0-5.287,4.059-10.287,13.398-10.287
		c3.693,0,8.402,1.159,9.416,1.159c0.508,0,1.088-0.578,1.449-1.159l0.652,0.146l0.363,10.723l-0.945,0.072
		c-2.533-8.692-8.256-9.708-11.586-9.708C389.794,19.314,386.821,20.908,386.821,22.574z"/>
</g>
</svg>
