<?xml version="1.0" encoding="utf-8"?>
<!-- Generator: Adobe Illustrator 16.0.0, SVG Export Plug-In . SVG Version: 6.00 Build 0)  -->
<!DOCTYPE svg PUBLIC "-//W3C//DTD SVG 1.1//EN" "http://www.w3.org/Graphics/SVG/1.1/DTD/svg11.dtd">
<svg version="1.1" id="Layer_1" xmlns="http://www.w3.org/2000/svg" xmlns:xlink="http://www.w3.org/1999/xlink" x="0px" y="0px"
	 width="266.667px" height="188px" viewBox="0 0 266.667 188" enable-background="new 0 0 266.667 188" xml:space="preserve">
<g>
	<rect x="0.842" y="11.603" fill="#FFFFFF" width="35.018" height="35.013"/>
	<g opacity="0.1" enable-background="new    ">
		<g>
			<defs>
				<rect id="SVGID_1_" x="0.842" y="11.603" width="35.018" height="35.013"/>
			</defs>
			<clipPath id="SVGID_2_">
				<use xlink:href="#SVGID_1_"  overflow="visible"/>
			</clipPath>
			
				<linearGradient id="SVGID_3_" gradientUnits="userSpaceOnUse" x1="6232.4351" y1="-2140.5269" x2="6232.4351" y2="-2070.4922" gradientTransform="matrix(-0.3565 -0.3565 0.4994 -0.4994 3274.2339 1216.9766)">
				<stop  offset="0" style="stop-color:#283593;stop-opacity:0"/>
				<stop  offset="1" style="stop-color:#283593"/>
			</linearGradient>
			<polygon clip-path="url(#SVGID_2_)" fill="url(#SVGID_3_)" points="-25.364,55.337 -7.849,72.844 27.122,37.872 9.607,20.367 			
				"/>
		</g>
	</g>
	<g>
		<g>
			<g>
				<polygon fill="#9FA8DA" points="27.105,20.356 27.105,37.862 9.596,37.862 				"/>
			</g>
		</g>
		<g>
			<g>
				<polygon fill="#283593" points="27.105,37.862 9.596,37.862 9.596,20.356 				"/>
			</g>
		</g>
	</g>
</g>
<g>
	<rect x="0.842" y="141.257" fill="#FFFFFF" width="35.018" height="35.013"/>
	<g opacity="0.1" enable-background="new    ">
		<g>
			<defs>
				<rect id="SVGID_4_" x="0.842" y="141.257" width="35.018" height="35.013"/>
			</defs>
			<clipPath id="SVGID_5_">
				<use xlink:href="#SVGID_4_"  overflow="visible"/>
			</clipPath>
			
				<linearGradient id="SVGID_6_" gradientUnits="userSpaceOnUse" x1="6050.5923" y1="-2270.3364" x2="6050.5923" y2="-2200.3013" gradientTransform="matrix(-0.3565 -0.3565 0.4994 -0.4994 3274.2339 1216.9766)">
				<stop  offset="0" style="stop-color:#283593;stop-opacity:0"/>
				<stop  offset="1" style="stop-color:#283593"/>
			</linearGradient>
			<polygon clip-path="url(#SVGID_5_)" fill="url(#SVGID_6_)" points="-25.364,184.991 -7.849,202.497 27.122,167.525 
				9.607,150.021 			"/>
		</g>
	</g>
	<g>
		<g>
			<g>
				<polygon fill="#9FA8DA" points="27.105,150.011 27.105,167.518 9.596,167.518 				"/>
			</g>
		</g>
		<g>
			<g>
				<polygon fill="#283593" points="27.105,167.518 9.596,167.518 9.596,150.011 				"/>
			</g>
		</g>
	</g>
</g>
<g>
	<rect x="1.004" y="76.491" fill="#E5E5E5" width="35.018" height="35.013"/>
	<g opacity="0.1" enable-background="new    ">
		<g>
			<defs>
				<rect id="SVGID_7_" x="1.004" y="76.491" width="35.018" height="35.013"/>
			</defs>
			<clipPath id="SVGID_8_">
				<use xlink:href="#SVGID_7_"  overflow="visible"/>
			</clipPath>
			
				<linearGradient id="SVGID_9_" gradientUnits="userSpaceOnUse" x1="6141.2026" y1="-2205.3306" x2="6141.2026" y2="-2135.2949" gradientTransform="matrix(-0.3565 -0.3565 0.4994 -0.4994 3274.2339 1216.9766)">
				<stop  offset="0" style="stop-color:#3B3B3B;stop-opacity:0"/>
				<stop  offset="1" style="stop-color:#3B3B3B"/>
			</linearGradient>
			<polygon clip-path="url(#SVGID_8_)" fill="url(#SVGID_9_)" points="-25.202,120.225 -7.687,137.732 27.284,102.76 9.77,85.255 
							"/>
		</g>
	</g>
	<g>
		<g>
			<g>
				<polygon fill="#ABABAB" points="27.267,85.244 27.267,102.75 9.758,102.75 				"/>
			</g>
		</g>
		<g>
			<g>
				<polygon fill="#3B3B3B" points="27.268,102.75 9.758,102.75 9.758,85.244 				"/>
			</g>
		</g>
	</g>
</g>
<text transform="matrix(1 0 0 1 56.5781 37.9707)" fill="#FFFFFF" font-family="'Roboto-Thin'" font-size="27">MATERIAL </text>
<text transform="matrix(1 0 0 1 188.5864 37.9707)" opacity="0.5" fill="#FFFFFF" enable-background="new    " font-family="'Roboto-Thin'" font-size="27">Fest</text>
<text transform="matrix(1 0 0 1 56.5781 103.9707)" font-family="'Roboto-Thin'" font-size="27">MATERIAL </text>
<text transform="matrix(1 0 0 1 188.5864 103.9707)" opacity="0.5" enable-background="new    " font-family="'Roboto-Thin'" font-size="27">Fest</text>
<text transform="matrix(1 0 0 1 56.5781 168.3047)" fill="#FFFFFF" font-family="'Roboto-Thin'" font-size="27">MATERIAL </text>
<text transform="matrix(1 0 0 1 188.5864 168.3047)" opacity="0.5" fill="#FFFFFF" enable-background="new    " font-family="'Roboto-Thin'" font-size="27">Fest</text>
</svg>
