<?xml version="1.0" encoding="utf-8"?>
<!-- Generator: Adobe Illustrator 16.0.0, SVG Export Plug-In . SVG Version: 6.00 Build 0)  -->
<!DOCTYPE svg PUBLIC "-//W3C//DTD SVG 1.1//EN" "http://www.w3.org/Graphics/SVG/1.1/DTD/svg11.dtd">
<svg version="1.1" id="Layer_1" xmlns="http://www.w3.org/2000/svg" xmlns:xlink="http://www.w3.org/1999/xlink" x="0px" y="0px"
	 width="185px" height="188px" viewBox="0 0 185 188" enable-background="new 0 0 185 188" xml:space="preserve">
<g>
	<g>
		<g>
			<g>
				<path fill="#394B9A" d="M47.689,19.481l7.925,18.217l7.952-18.217h1.045v19.265h-0.716V20.631h-0.038l-7.952,18.114h-0.569
					l-7.912-18.021h-0.038v18.021h-0.715V19.481H47.689z"/>
				<path fill="#394B9A" d="M80.266,32.989h-9.419l-2.145,5.757h-0.777l7.195-19.265h0.874l7.21,19.265h-0.78L80.266,32.989z
					 M71.112,32.275h8.89l-4.035-10.849l-0.384-1.15h-0.039l-0.383,1.15L71.112,32.275z"/>
				<path fill="#394B9A" d="M97.437,20.196h-7.01v18.55h-0.713v-18.55h-7.011v-0.715h14.734V20.196z"/>
				<path fill="#394B9A" d="M111.181,29.06h-9.656v8.97h11.008v0.716h-11.72V19.481h11.72v0.715h-11.008v8.15h9.656V29.06z"/>
				<path fill="#394B9A" d="M116.885,29.708v9.049h-0.715V19.494h6.14c2.073,0,3.648,0.43,4.721,1.289
					c1.072,0.862,1.607,2.151,1.607,3.872c0,1.093-0.337,2.079-1.011,2.957c-0.672,0.876-1.59,1.443-2.765,1.699v0.04
					c1.352,0.239,2.301,0.735,2.864,1.489c0.556,0.752,0.828,1.753,0.828,2.997v1.812c0,0.609,0.072,1.146,0.211,1.613
					c0.143,0.471,0.382,0.857,0.729,1.165v0.331h-0.701c-0.318-0.37-0.558-0.817-0.721-1.337c-0.15-0.521-0.232-1.12-0.232-1.8
					v-1.759c0-1.339-0.43-2.367-1.285-3.083c-0.855-0.713-2.122-1.07-3.808-1.07H116.885z M116.885,28.992h5.291
					c2.013,0,3.471-0.406,4.379-1.222c0.909-0.816,1.367-1.853,1.367-3.115c0-1.474-0.462-2.583-1.385-3.328
					c-0.92-0.746-2.328-1.118-4.228-1.118h-5.425V28.992z"/>
				<path fill="#394B9A" d="M135.209,38.746h-0.713V19.481h0.713V38.746z"/>
				<path fill="#394B9A" d="M151.396,32.989h-9.424l-2.142,5.757h-0.781l7.2-19.265h0.871l7.212,19.265h-0.779L151.396,32.989z
					 M142.241,32.275h8.889l-4.034-10.849l-0.384-1.15h-0.041l-0.383,1.15L142.241,32.275z"/>
				<path fill="#394B9A" d="M158.156,38.03h9.88v0.716h-10.604V19.481h0.725V38.03z"/>
				<path fill="#394B9A" d="M182.945,34.127c0-1.233-0.431-2.204-1.293-2.903c-0.867-0.703-2.412-1.361-4.645-1.979
					c-2.246-0.609-3.858-1.277-4.854-2.01c-1.002-0.733-1.497-1.836-1.497-3.308c0-1.464,0.591-2.618,1.769-3.459
					c1.175-0.843,2.718-1.263,4.619-1.263c1.915,0,3.463,0.521,4.646,1.56c1.183,1.043,1.773,2.422,1.773,4.141h-0.716
					c0-1.463-0.52-2.66-1.559-3.593c-1.038-0.926-2.425-1.394-4.145-1.394c-1.78,0-3.17,0.383-4.172,1.151
					c-0.997,0.766-1.499,1.709-1.499,2.833c0,1.109,0.405,2.021,1.229,2.73c0.818,0.712,2.352,1.35,4.604,1.924
					c2.171,0.574,3.788,1.256,4.861,2.051c1.071,0.793,1.606,1.958,1.606,3.492c0,1.562-0.611,2.772-1.839,3.632
					c-1.227,0.86-2.79,1.291-4.698,1.291c-1.965,0-3.637-0.447-5.022-1.337c-1.387-0.891-2.077-2.346-2.077-4.365h0.713
					c0,1.781,0.636,3.059,1.907,3.828c1.267,0.774,2.764,1.158,4.479,1.158c1.732,0,3.137-0.381,4.206-1.146
					C182.413,36.401,182.945,35.389,182.945,34.127z"/>
			</g>
		</g>
	</g>
	<g>
		<rect x="0.842" y="11.603" fill="#394B9A" width="35.017" height="35.021"/>
		<g>
			<defs>
				<rect id="SVGID_1_" x="0.842" y="11.603" width="35.017" height="35.021"/>
			</defs>
			<clipPath id="SVGID_2_">
				<use xlink:href="#SVGID_1_"  overflow="visible"/>
			</clipPath>
			
				<linearGradient id="SVGID_3_" gradientUnits="userSpaceOnUse" x1="5.3047" y1="42.1582" x2="42.4471" y2="5.0158" gradientTransform="matrix(0.8156 0.1844 0.1844 0.8156 -17.1938 17.1937)">
				<stop  offset="0" style="stop-color:#2A388C;stop-opacity:0"/>
				<stop  offset="1" style="stop-color:#2A388C"/>
			</linearGradient>
			<polygon clip-path="url(#SVGID_2_)" fill="url(#SVGID_3_)" points="9.596,20.358 27.104,37.867 3.661,61.312 -13.847,43.805 			
				"/>
		</g>
		<g>
			<polygon fill="#5A6AAF" points="27.104,20.358 27.104,20.358 27.104,20.358 			"/>
			<polygon fill="#5A6AAF" points="9.596,20.358 9.596,37.867 27.104,37.867 27.104,20.358 18.352,29.114 			"/>
		</g>
	</g>
</g>
<g>
	<g>
		<g>
			<g>
				<path fill="#1E1E1E" d="M47.853,84.37l7.924,18.215l7.953-18.215h1.045v19.264H64.06V85.52h-0.039l-7.952,18.114h-0.569
					l-7.91-18.022h-0.04v18.022h-0.713V84.37H47.853z"/>
				<path fill="#1E1E1E" d="M80.43,97.88h-9.42l-2.144,5.754h-0.779l7.194-19.264h0.875l7.21,19.264h-0.781L80.43,97.88z
					 M71.275,97.165h8.89l-4.036-10.851l-0.385-1.151h-0.038l-0.383,1.151L71.275,97.165z"/>
				<path fill="#1E1E1E" d="M97.601,85.083h-7.01v18.551h-0.714V85.083h-7.012V84.37h14.737V85.083z"/>
				<path fill="#1E1E1E" d="M111.346,93.948h-9.657v8.972h11.005v0.714h-11.721V84.37h11.721v0.713h-11.005v8.151h9.657V93.948z"/>
				<path fill="#1E1E1E" d="M117.048,94.598v9.048h-0.715V84.382h6.141c2.073,0,3.646,0.43,4.72,1.29
					c1.074,0.861,1.602,2.15,1.602,3.871c0,1.093-0.33,2.08-1.004,2.957c-0.672,0.877-1.592,1.443-2.764,1.7v0.039
					c1.349,0.24,2.3,0.736,2.856,1.491c0.556,0.751,0.835,1.752,0.835,2.995v1.812c0,0.609,0.07,1.148,0.209,1.613
					c0.143,0.47,0.386,0.86,0.729,1.165v0.33h-0.701c-0.315-0.369-0.559-0.814-0.718-1.335c-0.153-0.521-0.235-1.118-0.235-1.8
					V98.75c0-1.339-0.428-2.368-1.285-3.083c-0.855-0.712-2.124-1.069-3.809-1.069H117.048z M117.048,93.88h5.293
					c2.012,0,3.469-0.406,4.377-1.222c0.91-0.816,1.367-1.854,1.367-3.116c0-1.474-0.461-2.583-1.385-3.328
					c-0.92-0.745-2.329-1.119-4.227-1.119h-5.426V93.88z"/>
				<path fill="#1E1E1E" d="M135.371,103.634h-0.712V84.37h0.712V103.634z"/>
				<path fill="#1E1E1E" d="M151.559,97.88h-9.422l-2.141,5.754h-0.782l7.202-19.264h0.868l7.211,19.264h-0.78L151.559,97.88z
					 M142.406,97.165h8.886l-4.034-10.851l-0.385-1.151h-0.036l-0.386,1.151L142.406,97.165z"/>
				<path fill="#1E1E1E" d="M158.318,102.92h9.883v0.714h-10.607V84.37h0.725V102.92z"/>
				<path fill="#1E1E1E" d="M183.109,99.018c0-1.236-0.432-2.205-1.294-2.904c-0.868-0.703-2.412-1.362-4.644-1.98
					c-2.246-0.607-3.858-1.277-4.856-2.01c-0.999-0.733-1.497-1.836-1.497-3.308c0-1.465,0.591-2.617,1.77-3.461
					c1.175-0.841,2.716-1.263,4.619-1.263c1.915,0,3.464,0.52,4.646,1.562c1.184,1.04,1.774,2.42,1.774,4.14h-0.716
					c0-1.464-0.521-2.662-1.561-3.592c-1.038-0.93-2.423-1.397-4.144-1.397c-1.779,0-3.173,0.384-4.172,1.151
					c-0.997,0.767-1.5,1.711-1.5,2.834c0,1.108,0.406,2.02,1.23,2.731c0.818,0.71,2.352,1.349,4.603,1.925
					c2.171,0.572,3.788,1.254,4.861,2.05c1.07,0.792,1.606,1.958,1.606,3.492c0,1.562-0.611,2.773-1.838,3.631
					c-1.228,0.86-2.79,1.291-4.697,1.291c-1.967,0-3.642-0.445-5.025-1.338c-1.386-0.888-2.076-2.345-2.076-4.365h0.711
					c0,1.783,0.639,3.061,1.909,3.83c1.268,0.773,2.766,1.16,4.481,1.16c1.732,0,3.133-0.385,4.202-1.148
					C182.574,101.291,183.109,100.278,183.109,99.018z"/>
			</g>
		</g>
	</g>
	<g>
		<rect x="1.005" y="76.491" fill="#4E4E4E" width="35.017" height="35.021"/>
		<g>
			<defs>
				<rect id="SVGID_4_" x="1.005" y="76.491" width="35.017" height="35.021"/>
			</defs>
			<clipPath id="SVGID_5_">
				<use xlink:href="#SVGID_4_"  overflow="visible"/>
			</clipPath>
			
				<linearGradient id="SVGID_6_" gradientUnits="userSpaceOnUse" x1="-13.4409" y1="125.9551" x2="23.705" y2="88.8092" gradientTransform="matrix(0.8156 0.1844 0.1844 0.8156 -17.1938 17.1937)">
				<stop  offset="0" style="stop-color:#3D3D3D;stop-opacity:0"/>
				<stop  offset="1" style="stop-color:#080808"/>
			</linearGradient>
			<polygon clip-path="url(#SVGID_5_)" fill="url(#SVGID_6_)" points="9.759,85.247 27.268,102.754 3.822,126.203 -13.686,108.696 
							"/>
		</g>
		<g>
			<polygon fill="#6D6D6D" points="27.268,85.247 27.268,85.247 27.268,85.247 			"/>
			<polygon fill="#6D6D6D" points="9.758,85.247 9.758,102.754 27.268,102.754 27.268,85.247 18.514,94.002 			"/>
		</g>
	</g>
</g>
<g>
	<g>
		<g>
			<g>
				<path fill="#FFFFFF" d="M47.853,149.127l7.925,18.218l7.952-18.218h1.045v19.263h-0.716v-18.114h-0.039l-7.952,18.114H55.5
					l-7.912-18.021H47.55v18.021h-0.714v-19.263H47.853z"/>
				<path fill="#FFFFFF" d="M80.43,162.635h-9.42l-2.144,5.755h-0.778l7.193-19.263h0.875l7.21,19.263h-0.781L80.43,162.635z
					 M71.275,161.923h8.89l-4.035-10.85l-0.386-1.153h-0.037l-0.383,1.153L71.275,161.923z"/>
				<path fill="#FFFFFF" d="M97.6,149.841H90.59v18.549h-0.715v-18.549h-7.011v-0.714H97.6V149.841z"/>
				<path fill="#FFFFFF" d="M111.345,158.705h-9.656v8.972h11.005v0.713h-11.72v-19.263h11.72v0.714h-11.005v8.152h9.656V158.705z"
					/>
				<path fill="#FFFFFF" d="M117.048,159.352v9.051h-0.716v-19.265h6.141c2.074,0,3.648,0.433,4.721,1.292
					c1.074,0.862,1.603,2.149,1.603,3.87c0,1.093-0.331,2.08-1.005,2.957c-0.672,0.874-1.592,1.442-2.765,1.698v0.042
					c1.351,0.237,2.301,0.732,2.857,1.487c0.556,0.754,0.835,1.754,0.835,2.994v1.814c0,0.61,0.071,1.148,0.21,1.612
					c0.143,0.471,0.383,0.857,0.729,1.171v0.326h-0.701c-0.316-0.372-0.558-0.816-0.719-1.336c-0.152-0.521-0.234-1.119-0.234-1.799
					v-1.761c0-1.34-0.429-2.367-1.285-3.083c-0.854-0.713-2.124-1.072-3.808-1.072H117.048z M117.048,158.638h5.292
					c2.012,0,3.47-0.406,4.378-1.225c0.91-0.814,1.367-1.852,1.367-3.113c0-1.473-0.461-2.584-1.385-3.328
					c-0.92-0.746-2.328-1.119-4.228-1.119h-5.425V158.638z"/>
				<path fill="#FFFFFF" d="M135.372,168.39h-0.715v-19.263h0.715V168.39z"/>
				<path fill="#FFFFFF" d="M151.56,162.635h-9.424l-2.141,5.755h-0.782l7.201-19.263h0.871l7.211,19.263h-0.78L151.56,162.635z
					 M142.405,161.923h8.888l-4.034-10.85l-0.385-1.153h-0.039l-0.383,1.153L142.405,161.923z"/>
				<path fill="#FFFFFF" d="M158.318,167.677h9.882v0.713h-10.605v-19.263h0.724V167.677z"/>
				<path fill="#FFFFFF" d="M183.109,163.772c0-1.235-0.432-2.203-1.294-2.903c-0.869-0.701-2.412-1.358-4.645-1.981
					c-2.246-0.608-3.858-1.278-4.855-2.009c-1.001-0.734-1.496-1.836-1.496-3.308c0-1.466,0.59-2.615,1.769-3.46
					c1.175-0.841,2.715-1.26,4.618-1.26c1.917,0,3.464,0.516,4.646,1.56c1.184,1.038,1.774,2.42,1.774,4.142h-0.716
					c0-1.465-0.521-2.664-1.562-3.594c-1.036-0.928-2.423-1.399-4.144-1.399c-1.779,0-3.172,0.389-4.171,1.155
					c-0.997,0.768-1.5,1.71-1.5,2.832c0,1.107,0.406,2.021,1.23,2.729c0.817,0.713,2.352,1.356,4.604,1.928
					c2.17,0.572,3.787,1.256,4.86,2.049c1.07,0.792,1.606,1.96,1.606,3.491c0,1.562-0.611,2.774-1.838,3.632
					c-1.228,0.861-2.791,1.293-4.698,1.293c-1.967,0-3.641-0.446-5.023-1.336c-1.387-0.892-2.077-2.345-2.077-4.368h0.71
					c0,1.781,0.64,3.058,1.911,3.832c1.267,0.772,2.764,1.157,4.479,1.157c1.732,0,3.135-0.383,4.204-1.146
					C182.575,166.045,183.109,165.034,183.109,163.772z"/>
			</g>
		</g>
	</g>
	<g>
		<rect x="1.005" y="141.249" fill="#394B9A" width="35.017" height="35.021"/>
		<g>
			<defs>
				<rect id="SVGID_7_" x="1.005" y="141.249" width="35.017" height="35.021"/>
			</defs>
			<clipPath id="SVGID_8_">
				<use xlink:href="#SVGID_7_"  overflow="visible"/>
			</clipPath>
			
				<linearGradient id="SVGID_9_" gradientUnits="userSpaceOnUse" x1="-32.3545" y1="209.627" x2="4.79" y2="172.4825" gradientTransform="matrix(0.8156 0.1844 0.1844 0.8156 -17.1938 17.1937)">
				<stop  offset="0" style="stop-color:#2A388C;stop-opacity:0"/>
				<stop  offset="1" style="stop-color:#2A388C"/>
			</linearGradient>
			<polygon clip-path="url(#SVGID_8_)" fill="url(#SVGID_9_)" points="9.759,150.006 27.268,167.513 3.822,190.958 -13.686,173.453 
							"/>
		</g>
		<g>
			<polygon fill="#5A6AAF" points="27.268,150.006 27.268,150.006 27.268,150.006 			"/>
			<polygon fill="#5A6AAF" points="9.758,150.006 9.758,167.513 27.268,167.513 27.268,150.006 18.514,158.76 			"/>
		</g>
	</g>
</g>
</svg>
